<svg width="405" height="405" viewBox="0 0 405 405" fill="none" xmlns="http://www.w3.org/2000/svg">
<g filter="url(#filter0_d_2090_47187)">
<path d="M4 156.695C19.6286 156.695 35.2572 156.695 51.3593 156.695C51.3593 220.367 51.3593 284.039 51.3593 349.641C117.347 349.641 183.334 349.641 251.321 349.641C251.321 365.269 251.321 380.898 251.321 397C169.705 397 88.0892 397 4 397C4 317.7 4 238.399 4 156.695Z" fill="white" fill-opacity="0.1"/>
<path d="M153.68 0C235.296 0 316.912 0 401.001 0C401.001 79.3006 401.001 158.601 401.001 240.305C385.372 240.305 369.744 240.305 353.641 240.305C353.641 176.633 353.641 112.961 353.641 47.3594C287.654 47.3594 221.667 47.3594 153.68 47.3594C153.68 31.7308 153.68 16.1022 153.68 0Z" fill="white" fill-opacity="0.1"/>
<path d="M140.812 136.23C181.331 136.23 221.85 136.23 263.596 136.23C263.596 176.749 263.596 217.268 263.596 259.014C223.077 259.014 182.559 259.014 140.812 259.014C140.812 218.495 140.812 177.977 140.812 136.23Z" fill="white" fill-opacity="0.1"/>
<path d="M74.1587 184.176C89.7873 184.176 105.416 184.176 121.518 184.176C121.518 215.819 121.518 247.462 121.518 280.064C153.354 280.064 185.19 280.064 217.991 280.064C217.991 295.692 217.991 311.321 217.991 327.423C170.333 327.423 122.676 327.423 73.574 327.423C73.5273 277.055 73.5273 277.055 73.5352 264.417C73.5355 263.944 73.5357 263.472 73.536 262.985C73.5526 236.712 73.8287 210.448 74.1587 184.176Z" fill="white" fill-opacity="0.1"/>
<path d="M188.172 67.8242C235.636 67.8242 283.101 67.8242 332.004 67.8242C332.004 115.096 332.004 162.368 332.004 211.072C316.375 211.072 300.747 211.072 284.645 211.072C284.645 179.429 284.645 147.786 284.645 115.184C252.809 115.184 220.973 115.184 188.172 115.184C188.172 99.555 188.172 83.9264 188.172 67.8242Z" fill="white" fill-opacity="0.1"/>
</g>
<defs>
<filter id="filter0_d_2090_47187" x="0" y="0" width="405" height="405" filterUnits="userSpaceOnUse" color-interpolation-filters="sRGB">
<feFlood flood-opacity="0" result="BackgroundImageFix"/>
<feColorMatrix in="SourceAlpha" type="matrix" values="0 0 0 0 0 0 0 0 0 0 0 0 0 0 0 0 0 0 127 0" result="hardAlpha"/>
<feOffset dy="4"/>
<feGaussianBlur stdDeviation="2"/>
<feComposite in2="hardAlpha" operator="out"/>
<feColorMatrix type="matrix" values="0 0 0 0 0 0 0 0 0 0 0 0 0 0 0 0 0 0 0.25 0"/>
<feBlend mode="normal" in2="BackgroundImageFix" result="effect1_dropShadow_2090_47187"/>
<feBlend mode="normal" in="SourceGraphic" in2="effect1_dropShadow_2090_47187" result="shape"/>
</filter>
</defs>
</svg>
