<svg width="1205" height="268" viewBox="0 0 1205 268" fill="none" xmlns="http://www.w3.org/2000/svg">
<path d="M1205 126.215C1204.48 127.168 1203.5 128.5 1203.5 128.5C1200.35 140.157 1193.25 147.888 1181.6 151.403C1180.51 151.732 1179.34 151.974 1178.21 151.975C1146.57 152.006 1114.94 152 1083.01 152C1083.01 142.471 1083.01 133.052 1083.01 123.038C1084.92 123.038 1086.93 123.038 1088.93 123.038C1113.79 123.037 1138.64 123.295 1163.49 122.932C1176.78 122.737 1182.07 111.815 1177.92 100.164C1175.5 93.3557 1168.84 91.4421 1162.16 91.3296C1148.2 91.0941 1134.21 91.7499 1120.28 91.0556C1106.37 90.3622 1093.94 85.5579 1085.76 73.3284C1081.56 67.0673 1078.75 60.0815 1079.02 52.4347C1079.33 43.3761 1079.41 34.1687 1081.15 25.3321C1083.93 11.1624 1094.22 4.25568 1107.75 1.747C1111.25 1.09942 1114.88 1.0368 1118.45 1.02973C1144.72 0.977962 1170.98 1.00856 1197.24 1.01316C1198.38 1.01335 1199.52 1.01318 1200.93 1.01318C1200.93 10.7366 1200.93 20.2937 1200.93 30.4303C1199.76 30.4303 1198.42 30.4303 1197.08 30.4303C1172.1 30.4304 1147.12 30.4291 1122.14 30.4314C1113.95 30.4322 1108.39 36.0778 1107.35 45.4275C1106.54 52.7043 1111.58 60.0636 1118.8 61.4128C1123.18 62.2313 1127.7 62.5153 1132.17 62.5698C1144.85 62.7245 1157.56 63.2095 1170.2 62.5017C1185.94 61.6206 1194.45 70.5281 1200.82 83.0488C1202.24 85.8322 1203.31 88.793 1204.77 91.4149C1205 102.723 1205 114.288 1205 126.215Z" fill="#FDFDFD"/>
<path d="M0 102.361C9.89298 102 19.786 102 29.9983 102C29.9983 142.025 29.9983 182.28 29.9983 222.833C72.1353 222.833 113.956 222.833 156 222.833C156 232.942 156 242.754 156 252.988C104.252 252.988 52.4883 252.988 0.36229 253C0 202.915 0 152.819 0 102.361Z" fill="white"/>
<path d="M551.023 137.889C537.072 106.991 523.224 76.3658 508.997 44.9034C505.944 51.5398 503.215 57.3937 500.55 63.2764C487.776 91.4719 474.986 119.661 462.316 147.903C461.264 150.248 460.072 151.036 457.511 150.999C446.522 150.839 435.529 150.93 424 150.93C427.395 143.368 430.605 136.166 433.855 128.982C452.683 87.3684 471.549 45.772 490.291 4.11937C491.611 1.18674 493.037 -0.108638 496.452 0.00710456C505.142 0.301709 513.851 0.207349 522.548 0.0390741C524.987 -0.00812844 526.137 0.827093 527.107 2.98638C539.947 31.5756 552.853 60.1357 565.782 88.6847C574.911 108.843 584.101 128.973 593.261 149.117C593.463 149.56 593.631 150.018 594 150.923C581.945 150.923 570.235 150.972 558.528 150.823C557.651 150.812 556.473 149.553 555.982 148.594C554.235 145.182 552.725 141.648 551.023 137.889Z" fill="#FCFCFC"/>
<path d="M980.054 49.715C979.706 54.9927 979.27 59.9613 979.231 64.9331C979.143 75.9505 979.226 86.9697 979.291 97.9879C979.377 112.658 990.756 123.99 1005.36 123.996C1019.54 124.001 1033.71 123.993 1047.88 123.994C1048.14 123.994 1048.39 124.042 1048.93 124.096C1048.93 133.197 1048.93 142.331 1048.93 151.829C1047.53 151.829 1046.16 151.829 1044.8 151.829C1024.88 151.829 1004.95 151.364 985.047 151.981C970.433 152.434 961.775 144.632 955.161 133.151C950.218 124.573 949.102 114.928 949.059 105.298C948.965 84.6785 948.885 64.04 949.644 43.4406C950.464 21.1862 964.069 5.73095 985.332 1.46187C986.698 1.18749 988.112 1.02512 989.505 1.02298C1008.66 0.9935 1027.81 1.00134 1046.96 1.00005C1047.57 1 1048.18 1.00003 1049 1.00003C1049 10.6909 1049 20.1199 1049 29.856C1047.91 29.91 1046.8 30.0118 1045.69 30.0127C1032.79 30.0225 1019.9 30.0327 1007 30.0116C992.917 29.9885 984.558 36.01 980.054 49.715Z" fill="#FCFCFC"/>
<path d="M166.055 31.382C140.838 31.382 116.005 31.382 91 31.382C91 21.4426 91 11.8577 91 2C142.677 2 194.245 2 246 2C246 52.2516 246 102.486 246 153C236.292 153 226.524 153 216.495 153C216.495 112.544 216.495 72.2058 216.495 31.382C199.641 31.382 183.041 31.382 166.055 31.382Z" fill="white"/>
<path d="M702.514 2C710.206 2 717.512 2 725 2C725 11.7589 725 21.1946 725 30.8289C707.817 30.8289 690.848 30.8289 673.445 30.8289C673.445 71.2862 673.445 111.549 673.445 152C662.774 152 652.537 152 641.976 152C641.976 111.756 641.976 71.5824 641.976 30.9683C624.509 30.9683 607.356 30.9683 590 30.9683C590 21.1993 590 11.868 590 2C627.35 2 664.739 2 702.514 2Z" fill="#FDFDFD"/>
<path d="M805.081 54.6432C804.908 48.0223 804.851 41.7785 804.519 35.5494C804.322 31.8492 802.111 30.3415 798.375 30.373C784.895 30.4866 771.414 30.4199 757.933 30.4213C756.683 30.4214 755.433 30.4213 754 30.4213C754 20.9475 754 11.8044 754 2.41325C754.977 2.34305 755.959 2.21137 756.942 2.21085C775.891 2.20086 794.858 2.71075 813.782 2.00962C824.289 1.62031 836.511 13.1124 835.984 24.5265C835.284 39.6876 836.126 54.9156 835.657 70.0948C835.476 75.9662 834.207 82.0298 832.221 87.5676C829.006 96.532 821.89 101.137 812.489 102.155C811.858 102.223 811.219 102.224 810.587 102.285C805.494 102.781 804.774 104.193 807.527 108.46C816.438 122.272 825.376 136.067 834.297 149.873C834.761 150.591 835.165 151.349 835.943 152.683C829.125 152.683 822.846 152.683 816.567 152.683C814.659 152.683 812.704 152.408 810.853 152.732C803.845 153.957 799.855 150.919 796.032 144.947C782.852 124.352 768.959 104.216 755.338 83.9054C755.073 83.5113 754.813 83.1146 754.246 82.2604C755.768 82.1829 756.834 82.0825 757.9 82.0815C770.363 82.0702 782.826 82.0995 795.29 82.0633C802.088 82.0435 805.049 79.0671 805.094 72.2629C805.132 66.5177 805.088 60.772 805.081 54.6432Z" fill="#FDFDFD"/>
<path d="M288 130.29C288 87.3575 288 44.8094 288 2C297.914 2 307.66 2 317.671 2C317.671 42.3496 317.671 82.5651 317.671 123.201C345.224 123.201 372.518 123.201 400 123.201C400 133.314 400 143.011 400 153C362.888 153 325.729 153 288 153C288 145.674 288 138.175 288 130.29Z" fill="#FDFDFD"/>
<path d="M156.762 165.888C132.013 165.888 107.638 165.888 83 165.888C83 140.222 83 114.739 83 89C108.453 89 134.036 89 159.861 89C159.893 89.6358 159.95 90.2464 159.95 90.857C159.955 114.872 159.927 138.888 160 162.903C160.007 165.116 159.67 166.4 156.762 165.888Z" fill="white"/>
<path d="M883.623 153C881.23 153 879.215 153 877 153C877 102.525 877 52.3825 877 2C887.282 2 897.56 2 908 2C908 52.2403 908 102.38 908 153C899.968 153 891.985 153 883.623 153Z" fill="#FDFDFD"/>
<path d="M90.8521 180.024C104.761 180.024 118.286 180.024 132 180.024C132 190.152 132 199.988 132 210C101.992 210 72.1204 210 42 210C42 180.122 42 150.198 42 120C51.7829 120 61.5303 120 71.5241 120C71.5241 139.924 71.5241 159.808 71.5241 180.024C77.999 180.024 84.2336 180.024 90.8521 180.024Z" fill="#FDFDFD"/>
<path d="M148.542 74.7028C136.518 74.7028 124.88 74.7028 113 74.7028C113 64.6825 113 54.9541 113 45C142.932 45 172.849 45 203 45C203 74.9178 203 104.843 203 135C193.168 135 183.488 135 173.564 135C173.564 115.134 173.564 95.2225 173.564 74.7028C165.2 74.7028 157.063 74.7028 148.542 74.7028Z" fill="#FCFCFC"/>
<path d="M288.416 250V198.94H308.495C313.555 198.94 317.235 200.113 319.535 202.459C321.881 204.759 323.054 208.048 323.054 212.326C323.054 214.35 322.755 216.144 322.157 217.708C321.605 219.226 320.8 220.491 319.742 221.503C318.684 222.469 317.419 223.136 315.947 223.504C317.051 223.78 318.109 224.217 319.121 224.815C320.179 225.413 321.122 226.218 321.95 227.23C322.824 228.242 323.491 229.484 323.951 230.956C324.457 232.382 324.71 234.038 324.71 235.924C324.71 239.374 324.112 242.134 322.916 244.204C321.766 246.274 320.041 247.769 317.741 248.689C315.487 249.563 312.704 250 309.392 250H288.416ZM298.628 240.823H309.116C310.312 240.823 311.347 240.593 312.221 240.133C313.095 239.673 313.762 238.96 314.222 237.994C314.728 237.028 314.981 235.74 314.981 234.13C314.981 232.796 314.728 231.669 314.222 230.749C313.716 229.829 313.026 229.116 312.152 228.61C311.278 228.104 310.266 227.851 309.116 227.851H298.628V240.823ZM298.628 219.985H308.564C310.036 219.985 311.186 219.456 312.014 218.398C312.888 217.294 313.325 215.868 313.325 214.12C313.371 211.866 312.911 210.302 311.945 209.428C310.979 208.554 309.806 208.117 308.426 208.117H298.628V219.985ZM345.131 250.414C341.819 250.414 339.22 249.448 337.334 247.516C335.448 245.538 334.505 242.755 334.505 239.167V212.947H344.717V236.131C344.717 238.201 345.2 239.604 346.166 240.34C347.178 241.03 348.489 241.375 350.099 241.375C351.387 241.375 352.698 241.145 354.032 240.685C355.412 240.179 356.631 239.512 357.689 238.684V212.947H367.97V250H359.483L357.689 246.205C356.033 247.309 354.124 248.298 351.962 249.172C349.8 250 347.523 250.414 345.131 250.414ZM380.371 207.496C379.405 207.496 378.922 207.036 378.922 206.116V199.354C378.922 198.388 379.405 197.905 380.371 197.905H388.237C388.651 197.905 388.973 198.043 389.203 198.319C389.433 198.595 389.548 198.94 389.548 199.354V206.116C389.548 207.036 389.111 207.496 388.237 207.496H380.371ZM379.129 250V212.947H389.341V250H379.129ZM412.229 250.138C409.607 250.138 407.422 249.724 405.674 248.896C403.972 248.022 402.707 246.711 401.879 244.963C401.051 243.169 400.637 240.869 400.637 238.063V197.353H410.849V236.545C410.849 237.925 410.987 239.029 411.263 239.857C411.539 240.639 411.953 241.214 412.505 241.582C413.103 241.95 413.839 242.203 414.713 242.341L417.542 242.755V250.138H412.229ZM437.861 250.414C434.963 250.414 432.525 249.816 430.547 248.62C428.569 247.378 427.074 245.4 426.062 242.686C425.096 239.926 424.613 236.315 424.613 231.853C424.613 227.253 425.027 223.527 425.855 220.675C426.729 217.823 428.178 215.73 430.202 214.396C432.226 213.062 435.009 212.395 438.551 212.395C440.253 212.395 441.932 212.579 443.588 212.947C445.244 213.269 446.716 213.66 448.004 214.12V197.353H458.285V250H449.66L448.004 246.481C447.222 247.217 446.256 247.884 445.106 248.482C444.002 249.08 442.829 249.563 441.587 249.931C440.345 250.253 439.103 250.414 437.861 250.414ZM441.449 242.203C442.829 242.203 444.071 241.973 445.175 241.513C446.325 241.053 447.268 240.593 448.004 240.133V221.503C447.084 221.181 446.118 220.859 445.106 220.537C444.094 220.215 443.013 220.054 441.863 220.054C440.161 220.054 438.781 220.353 437.723 220.951C436.711 221.549 435.975 222.676 435.515 224.332C435.055 225.942 434.825 228.288 434.825 231.37C434.825 234.222 435.032 236.453 435.446 238.063C435.906 239.627 436.619 240.708 437.585 241.306C438.551 241.904 439.839 242.203 441.449 242.203ZM470.637 207.496C469.671 207.496 469.188 207.036 469.188 206.116V199.354C469.188 198.388 469.671 197.905 470.637 197.905H478.503C478.917 197.905 479.239 198.043 479.469 198.319C479.699 198.595 479.814 198.94 479.814 199.354V206.116C479.814 207.036 479.377 207.496 478.503 207.496H470.637ZM469.395 250V212.947H479.607V250H469.395ZM490.904 250V212.947H499.322L501.116 216.742C502.496 215.592 504.221 214.58 506.291 213.706C508.407 212.786 510.569 212.326 512.777 212.326C515.813 212.326 518.159 212.924 519.815 214.12C521.471 215.316 522.621 216.926 523.265 218.95C523.955 220.928 524.3 223.136 524.3 225.574V250H514.088V226.885C514.088 225.689 513.858 224.7 513.398 223.918C512.984 223.136 512.386 222.538 511.604 222.124C510.822 221.71 509.879 221.503 508.775 221.503C507.809 221.503 506.866 221.618 505.946 221.848C505.072 222.078 504.221 222.4 503.393 222.814C502.611 223.228 501.852 223.711 501.116 224.263V250H490.904ZM544.981 267.112C542.635 267.112 540.542 266.767 538.702 266.077C536.908 265.387 535.482 264.375 534.424 263.041C533.366 261.753 532.837 260.143 532.837 258.211V257.107C532.837 255.129 533.389 253.427 534.493 252.001C535.643 250.621 537.115 249.563 538.909 248.827C540.703 248.091 542.612 247.723 544.636 247.723L547.672 250.897C546.66 250.897 545.763 251.058 544.981 251.38C544.199 251.702 543.578 252.162 543.118 252.76C542.704 253.404 542.497 254.186 542.497 255.106V255.865C542.497 257.199 542.957 258.211 543.877 258.901C544.797 259.591 546.108 259.936 547.81 259.936H554.848C556.55 259.936 557.907 259.591 558.919 258.901C559.977 258.257 560.506 257.268 560.506 255.934V254.83C560.506 254.002 560.299 253.289 559.885 252.691C559.517 252.139 558.942 251.702 558.16 251.38C557.424 251.058 556.412 250.897 555.124 250.897H546.913C542.773 250.897 539.691 250.138 537.667 248.62C535.689 247.056 534.7 245.147 534.7 242.893C534.7 241.007 535.229 239.443 536.287 238.201C537.391 236.913 538.909 236.062 540.841 235.648C539.369 234.866 538.196 233.923 537.322 232.819C536.448 231.669 535.827 230.45 535.459 229.162C535.091 227.828 534.907 226.448 534.907 225.022C534.907 222.308 535.459 220.054 536.563 218.26C537.713 216.466 539.415 215.132 541.669 214.258C543.969 213.384 546.844 212.947 550.294 212.947H570.373V218.536L564.715 219.571C565.129 220.031 565.543 220.583 565.957 221.227C566.371 221.825 566.716 222.63 566.992 223.642C567.314 224.608 567.475 225.827 567.475 227.299C567.475 229.415 567.015 231.324 566.095 233.026C565.221 234.728 563.795 236.085 561.817 237.097C559.885 238.109 557.309 238.615 554.089 238.615H547.534C546.292 238.615 545.28 238.799 544.498 239.167C543.716 239.535 543.325 240.202 543.325 241.168C543.325 241.95 543.647 242.502 544.291 242.824C544.981 243.1 545.74 243.238 546.568 243.238H556.78C559.632 243.238 562.047 243.606 564.025 244.342C566.003 245.078 567.521 246.274 568.579 247.93C569.637 249.54 570.166 251.679 570.166 254.347V255.382C570.166 259.016 569.016 261.868 566.716 263.938C564.416 266.054 560.874 267.112 556.09 267.112H544.981ZM548.983 230.956H552.916C554.342 230.956 555.423 230.749 556.159 230.335C556.941 229.875 557.47 229.277 557.746 228.541C558.068 227.759 558.229 226.862 558.229 225.85C558.229 224.562 558.022 223.527 557.608 222.745C557.24 221.963 556.688 221.411 555.952 221.089C555.216 220.767 554.296 220.606 553.192 220.606H549.328C547.58 220.606 546.269 220.997 545.395 221.779C544.521 222.515 544.084 223.826 544.084 225.712C544.084 227.506 544.498 228.84 545.326 229.714C546.154 230.542 547.373 230.956 548.983 230.956ZM600.722 250V198.94H620.801C625.861 198.94 629.541 200.113 631.841 202.459C634.187 204.759 635.36 208.048 635.36 212.326C635.36 214.35 635.061 216.144 634.463 217.708C633.911 219.226 633.106 220.491 632.048 221.503C630.99 222.469 629.725 223.136 628.253 223.504C629.357 223.78 630.415 224.217 631.427 224.815C632.485 225.413 633.428 226.218 634.256 227.23C635.13 228.242 635.797 229.484 636.257 230.956C636.763 232.382 637.016 234.038 637.016 235.924C637.016 239.374 636.418 242.134 635.222 244.204C634.072 246.274 632.347 247.769 630.047 248.689C627.793 249.563 625.01 250 621.698 250H600.722ZM610.934 240.823H621.422C622.618 240.823 623.653 240.593 624.527 240.133C625.401 239.673 626.068 238.96 626.528 237.994C627.034 237.028 627.287 235.74 627.287 234.13C627.287 232.796 627.034 231.669 626.528 230.749C626.022 229.829 625.332 229.116 624.458 228.61C623.584 228.104 622.572 227.851 621.422 227.851H610.934V240.823ZM610.934 219.985H620.87C622.342 219.985 623.492 219.456 624.32 218.398C625.194 217.294 625.631 215.868 625.631 214.12C625.677 211.866 625.217 210.302 624.251 209.428C623.285 208.554 622.112 208.117 620.732 208.117H610.934V219.985ZM662.543 250.345C658.449 250.345 655.183 249.816 652.745 248.758C650.307 247.654 648.536 245.722 647.432 242.962C646.374 240.202 645.845 236.384 645.845 231.508C645.845 226.494 646.351 222.607 647.363 219.847C648.375 217.087 650.077 215.155 652.469 214.051C654.861 212.947 658.104 212.395 662.198 212.395C665.878 212.395 668.822 212.763 671.03 213.499C673.238 214.235 674.825 215.523 675.791 217.363C676.803 219.203 677.309 221.802 677.309 225.16C677.309 227.644 676.803 229.622 675.791 231.094C674.825 232.52 673.445 233.555 671.651 234.199C669.857 234.797 667.741 235.096 665.303 235.096H655.988C656.08 236.982 656.356 238.5 656.816 239.65C657.322 240.754 658.219 241.559 659.507 242.065C660.841 242.525 662.75 242.755 665.234 242.755H676.067V248.758C674.273 249.126 672.295 249.494 670.133 249.862C668.017 250.184 665.487 250.345 662.543 250.345ZM655.85 229.024H664.268C665.648 229.024 666.66 228.748 667.304 228.196C667.948 227.644 668.27 226.655 668.27 225.229C668.27 223.895 668.063 222.837 667.649 222.055C667.235 221.227 666.591 220.652 665.717 220.33C664.843 219.962 663.67 219.778 662.198 219.778C660.634 219.778 659.392 220.054 658.472 220.606C657.552 221.112 656.885 222.032 656.471 223.366C656.057 224.7 655.85 226.586 655.85 229.024ZM701.535 250C698.683 250 696.36 249.586 694.566 248.758C692.818 247.93 691.553 246.55 690.771 244.618C689.989 242.686 689.644 240.087 689.736 236.821L690.081 221.158H684.285V214.603L690.426 212.947L691.806 202.597H699.879V212.947H708.573V221.158H699.879V236.752C699.879 237.764 699.971 238.592 700.155 239.236C700.339 239.88 700.592 240.409 700.914 240.823C701.282 241.191 701.696 241.467 702.156 241.651C702.616 241.835 703.076 241.95 703.536 241.996L708.228 242.41V250H701.535ZM731.804 250C728.952 250 726.629 249.586 724.835 248.758C723.087 247.93 721.822 246.55 721.04 244.618C720.258 242.686 719.913 240.087 720.005 236.821L720.35 221.158H714.554V214.603L720.695 212.947L722.075 202.597H730.148V212.947H738.842V221.158H730.148V236.752C730.148 237.764 730.24 238.592 730.424 239.236C730.608 239.88 730.861 240.409 731.183 240.823C731.551 241.191 731.965 241.467 732.425 241.651C732.885 241.835 733.345 241.95 733.805 241.996L738.497 242.41V250H731.804ZM763.59 250.345C759.496 250.345 756.23 249.816 753.792 248.758C751.354 247.654 749.583 245.722 748.479 242.962C747.421 240.202 746.892 236.384 746.892 231.508C746.892 226.494 747.398 222.607 748.41 219.847C749.422 217.087 751.124 215.155 753.516 214.051C755.908 212.947 759.151 212.395 763.245 212.395C766.925 212.395 769.869 212.763 772.077 213.499C774.285 214.235 775.872 215.523 776.838 217.363C777.85 219.203 778.356 221.802 778.356 225.16C778.356 227.644 777.85 229.622 776.838 231.094C775.872 232.52 774.492 233.555 772.698 234.199C770.904 234.797 768.788 235.096 766.35 235.096H757.035C757.127 236.982 757.403 238.5 757.863 239.65C758.369 240.754 759.266 241.559 760.554 242.065C761.888 242.525 763.797 242.755 766.281 242.755H777.114V248.758C775.32 249.126 773.342 249.494 771.18 249.862C769.064 250.184 766.534 250.345 763.59 250.345ZM756.897 229.024H765.315C766.695 229.024 767.707 228.748 768.351 228.196C768.995 227.644 769.317 226.655 769.317 225.229C769.317 223.895 769.11 222.837 768.696 222.055C768.282 221.227 767.638 220.652 766.764 220.33C765.89 219.962 764.717 219.778 763.245 219.778C761.681 219.778 760.439 220.054 759.519 220.606C758.599 221.112 757.932 222.032 757.518 223.366C757.104 224.7 756.897 226.586 756.897 229.024ZM788.506 250V212.947H796.372L798.718 218.605C800.052 216.903 801.547 215.454 803.203 214.258C804.905 213.062 806.906 212.464 809.206 212.464C809.712 212.464 810.218 212.487 810.724 212.533C811.276 212.579 811.782 212.671 812.242 212.809V223.297C811.552 223.205 810.816 223.136 810.034 223.09C809.298 222.998 808.585 222.952 807.895 222.952C806.561 222.952 805.342 223.113 804.238 223.435C803.18 223.711 802.191 224.148 801.271 224.746C800.397 225.298 799.546 226.034 798.718 226.954V250H788.506ZM853.55 250V208.117H839.543V198.94H877.838V208.117H863.762V250H853.55ZM898.753 250.345C895.717 250.345 893.118 250.046 890.956 249.448C888.794 248.804 887.023 247.746 885.643 246.274C884.309 244.802 883.32 242.847 882.676 240.409C882.078 237.971 881.779 234.958 881.779 231.37C881.779 227.598 882.078 224.493 882.676 222.055C883.32 219.571 884.309 217.639 885.643 216.259C887.023 214.833 888.794 213.844 890.956 213.292C893.164 212.694 895.763 212.395 898.753 212.395C901.835 212.395 904.457 212.694 906.619 213.292C908.781 213.89 910.529 214.902 911.863 216.328C913.243 217.708 914.232 219.64 914.83 222.124C915.474 224.562 915.796 227.644 915.796 231.37C915.796 235.05 915.497 238.132 914.899 240.616C914.301 243.054 913.335 244.986 912.001 246.412C910.667 247.838 908.896 248.85 906.688 249.448C904.526 250.046 901.881 250.345 898.753 250.345ZM898.753 242.203C899.995 242.203 901.03 242.088 901.858 241.858C902.732 241.628 903.422 241.168 903.928 240.478C904.48 239.742 904.894 238.638 905.17 237.166C905.446 235.694 905.584 233.762 905.584 231.37C905.584 228.932 905.446 227 905.17 225.574C904.894 224.102 904.48 223.021 903.928 222.331C903.422 221.595 902.732 221.112 901.858 220.882C901.03 220.652 899.995 220.537 898.753 220.537C897.557 220.537 896.522 220.652 895.648 220.882C894.82 221.112 894.13 221.595 893.578 222.331C893.026 223.021 892.612 224.102 892.336 225.574C892.106 227 891.991 228.932 891.991 231.37C891.991 233.762 892.106 235.694 892.336 237.166C892.612 238.638 893.026 239.742 893.578 240.478C894.13 241.168 894.82 241.628 895.648 241.858C896.522 242.088 897.557 242.203 898.753 242.203ZM926.021 250V212.947H934.439L936.233 216.742C937.843 215.546 939.591 214.511 941.477 213.637C943.409 212.763 945.778 212.326 948.584 212.326C950.93 212.326 952.862 212.809 954.38 213.775C955.944 214.741 957.117 216.006 957.899 217.57C958.957 216.742 960.176 215.937 961.556 215.155C962.982 214.373 964.5 213.706 966.11 213.154C967.72 212.602 969.307 212.326 970.871 212.326C973.861 212.326 976.207 212.901 977.909 214.051C979.657 215.155 980.876 216.742 981.566 218.812C982.256 220.836 982.601 223.228 982.601 225.988V250H972.389V226.885C972.389 225.689 972.159 224.7 971.699 223.918C971.285 223.136 970.687 222.538 969.905 222.124C969.123 221.71 968.18 221.503 967.076 221.503C965.696 221.503 964.293 221.802 962.867 222.4C961.487 222.952 960.245 223.619 959.141 224.401C959.233 224.861 959.302 225.321 959.348 225.781C959.394 226.195 959.417 226.632 959.417 227.092V250H949.205V226.885C949.205 225.689 948.975 224.7 948.515 223.918C948.101 223.136 947.503 222.538 946.721 222.124C945.939 221.71 944.996 221.503 943.892 221.503C942.926 221.503 941.983 221.618 941.063 221.848C940.189 222.078 939.338 222.4 938.51 222.814C937.728 223.228 936.969 223.711 936.233 224.263V250H926.021ZM1009.56 250.345C1006.52 250.345 1003.92 250.046 1001.76 249.448C999.598 248.804 997.827 247.746 996.447 246.274C995.113 244.802 994.124 242.847 993.48 240.409C992.882 237.971 992.583 234.958 992.583 231.37C992.583 227.598 992.882 224.493 993.48 222.055C994.124 219.571 995.113 217.639 996.447 216.259C997.827 214.833 999.598 213.844 1001.76 213.292C1003.97 212.694 1006.57 212.395 1009.56 212.395C1012.64 212.395 1015.26 212.694 1017.42 213.292C1019.59 213.89 1021.33 214.902 1022.67 216.328C1024.05 217.708 1025.04 219.64 1025.63 222.124C1026.28 224.562 1026.6 227.644 1026.6 231.37C1026.6 235.05 1026.3 238.132 1025.7 240.616C1025.11 243.054 1024.14 244.986 1022.81 246.412C1021.47 247.838 1019.7 248.85 1017.49 249.448C1015.33 250.046 1012.69 250.345 1009.56 250.345ZM1009.56 242.203C1010.8 242.203 1011.83 242.088 1012.66 241.858C1013.54 241.628 1014.23 241.168 1014.73 240.478C1015.28 239.742 1015.7 238.638 1015.97 237.166C1016.25 235.694 1016.39 233.762 1016.39 231.37C1016.39 228.932 1016.25 227 1015.97 225.574C1015.7 224.102 1015.28 223.021 1014.73 222.331C1014.23 221.595 1013.54 221.112 1012.66 220.882C1011.83 220.652 1010.8 220.537 1009.56 220.537C1008.36 220.537 1007.33 220.652 1006.45 220.882C1005.62 221.112 1004.93 221.595 1004.38 222.331C1003.83 223.021 1003.42 224.102 1003.14 225.574C1002.91 227 1002.8 228.932 1002.8 231.37C1002.8 233.762 1002.91 235.694 1003.14 237.166C1003.42 238.638 1003.83 239.742 1004.38 240.478C1004.93 241.168 1005.62 241.628 1006.45 241.858C1007.33 242.088 1008.36 242.203 1009.56 242.203ZM1036.83 250V212.947H1044.69L1047.04 218.605C1048.37 216.903 1049.87 215.454 1051.52 214.258C1053.22 213.062 1055.23 212.464 1057.53 212.464C1058.03 212.464 1058.54 212.487 1059.04 212.533C1059.6 212.579 1060.1 212.671 1060.56 212.809V223.297C1059.87 223.205 1059.14 223.136 1058.35 223.09C1057.62 222.998 1056.9 222.952 1056.21 222.952C1054.88 222.952 1053.66 223.113 1052.56 223.435C1051.5 223.711 1050.51 224.148 1049.59 224.746C1048.72 225.298 1047.87 226.034 1047.04 226.954V250H1036.83ZM1069.45 250V212.947H1077.32L1079.66 218.605C1081 216.903 1082.49 215.454 1084.15 214.258C1085.85 213.062 1087.85 212.464 1090.15 212.464C1090.66 212.464 1091.16 212.487 1091.67 212.533C1092.22 212.579 1092.73 212.671 1093.19 212.809V223.297C1092.5 223.205 1091.76 223.136 1090.98 223.09C1090.24 222.998 1089.53 222.952 1088.84 222.952C1087.51 222.952 1086.29 223.113 1085.18 223.435C1084.13 223.711 1083.14 224.148 1082.22 224.746C1081.34 225.298 1080.49 226.034 1079.66 226.954V250H1069.45ZM1117.95 250.345C1114.91 250.345 1112.31 250.046 1110.15 249.448C1107.99 248.804 1106.22 247.746 1104.84 246.274C1103.51 244.802 1102.52 242.847 1101.87 240.409C1101.27 237.971 1100.98 234.958 1100.98 231.37C1100.98 227.598 1101.27 224.493 1101.87 222.055C1102.52 219.571 1103.51 217.639 1104.84 216.259C1106.22 214.833 1107.99 213.844 1110.15 213.292C1112.36 212.694 1114.96 212.395 1117.95 212.395C1121.03 212.395 1123.65 212.694 1125.82 213.292C1127.98 213.89 1129.73 214.902 1131.06 216.328C1132.44 217.708 1133.43 219.64 1134.03 222.124C1134.67 224.562 1134.99 227.644 1134.99 231.37C1134.99 235.05 1134.69 238.132 1134.1 240.616C1133.5 243.054 1132.53 244.986 1131.2 246.412C1129.86 247.838 1128.09 248.85 1125.88 249.448C1123.72 250.046 1121.08 250.345 1117.95 250.345ZM1117.95 242.203C1119.19 242.203 1120.23 242.088 1121.05 241.858C1121.93 241.628 1122.62 241.168 1123.12 240.478C1123.68 239.742 1124.09 238.638 1124.37 237.166C1124.64 235.694 1124.78 233.762 1124.78 231.37C1124.78 228.932 1124.64 227 1124.37 225.574C1124.09 224.102 1123.68 223.021 1123.12 222.331C1122.62 221.595 1121.93 221.112 1121.05 220.882C1120.23 220.652 1119.19 220.537 1117.95 220.537C1116.75 220.537 1115.72 220.652 1114.84 220.882C1114.02 221.112 1113.33 221.595 1112.77 222.331C1112.22 223.021 1111.81 224.102 1111.53 225.574C1111.3 227 1111.19 228.932 1111.19 231.37C1111.19 233.762 1111.3 235.694 1111.53 237.166C1111.81 238.638 1112.22 239.742 1112.77 240.478C1113.33 241.168 1114.02 241.628 1114.84 241.858C1115.72 242.088 1116.75 242.203 1117.95 242.203ZM1150.56 250L1140.76 212.947H1151.32L1157.19 240.547L1164.5 212.947H1172.92L1180.23 240.547L1185.55 212.947H1196.1L1186.44 250H1175.13L1168.5 227.437L1161.67 250H1150.56Z" fill="white"/>
</svg>
