<svg width="125" height="125" viewBox="0 0 125 125" fill="none" xmlns="http://www.w3.org/2000/svg">
<path d="M0 49.3374C4.92084 49.3374 9.84168 49.3374 14.9116 49.3374C14.9116 69.3853 14.9116 89.4331 14.9116 110.089C35.6885 110.089 56.4654 110.089 77.8719 110.089C77.8719 115.009 77.8719 119.93 77.8719 125C52.1741 125 26.4764 125 0 125C0 100.031 0 75.0627 0 49.3374Z" fill="white"/>
<path d="M47.1281 0C72.8258 0 98.5235 0 125 0C125 24.9687 125 49.9374 125 75.6627C120.079 75.6627 115.158 75.6627 110.088 75.6627C110.088 55.6149 110.088 35.567 110.088 14.9116C89.3115 14.9116 68.5346 14.9116 47.1281 14.9116C47.1281 9.9908 47.1281 5.06996 47.1281 0Z" fill="white"/>
<path d="M43.0781 42.894C55.8358 42.894 68.5935 42.894 81.7379 42.894C81.7379 55.6518 81.7379 68.4095 81.7379 81.5538C68.9801 81.5538 56.2224 81.5538 43.0781 81.5538C43.0781 68.7961 43.0781 56.0384 43.0781 42.894Z" fill="white"/>
<path d="M22.0913 57.9897C27.0121 57.9897 31.933 57.9897 37.0029 57.9897C37.0029 67.9529 37.0029 77.9161 37.0029 88.1812C47.0269 88.1812 57.0508 88.1812 67.3785 88.1812C67.3785 93.102 67.3785 98.0229 67.3785 103.093C52.373 103.093 37.3674 103.093 21.9072 103.093C21.8925 87.2338 21.8925 87.2338 21.895 83.2545C21.8951 83.1057 21.8952 82.957 21.8952 82.8037C21.9004 74.5313 21.9874 66.2617 22.0913 57.9897Z" fill="white"/>
<path d="M57.9897 21.355C72.9345 21.355 87.8792 21.355 103.277 21.355C103.277 36.239 103.277 51.123 103.277 66.4581C98.356 66.4581 93.4352 66.4581 88.3652 66.4581C88.3652 56.4949 88.3652 46.5317 88.3652 36.2666C78.3413 36.2666 68.3174 36.2666 57.9897 36.2666C57.9897 31.3458 57.9897 26.4249 57.9897 21.355Z" fill="white"/>
</svg>
