<svg width="283" height="58" viewBox="0 0 283 58" fill="none" xmlns="http://www.w3.org/2000/svg">
<path d="M282.012 29.4944C281.891 29.7176 281.661 30.0292 281.661 30.0292C280.924 32.7573 279.262 34.5666 276.535 35.3893C276.28 35.4663 276.007 35.523 275.742 35.5232C268.338 35.5303 260.934 35.5289 253.462 35.5289C253.462 33.2988 253.462 31.0947 253.462 28.7509C253.909 28.7509 254.378 28.7509 254.848 28.7509C260.664 28.7508 266.482 28.8112 272.297 28.7261C275.407 28.6806 276.644 26.1244 275.675 23.3977C275.108 21.8043 273.548 21.3565 271.986 21.3301C268.719 21.275 265.444 21.4285 262.184 21.266C258.928 21.1037 256.021 19.9794 254.105 17.1172C253.123 15.6519 252.466 14.017 252.527 12.2274C252.6 10.1074 252.62 7.95253 253.026 5.88448C253.678 2.56829 256.085 0.951881 259.252 0.364764C260.07 0.213209 260.921 0.198554 261.757 0.196898C267.903 0.184784 274.049 0.191944 280.195 0.193021C280.462 0.193065 280.73 0.193027 281.06 0.193027C281.06 2.46864 281.06 4.70531 281.06 7.07762C280.786 7.07762 280.472 7.07762 280.158 7.07763C274.312 7.07765 268.465 7.07735 262.619 7.07789C260.703 7.07807 259.401 8.39934 259.158 10.5875C258.969 12.2905 260.148 14.0128 261.837 14.3286C262.862 14.5201 263.921 14.5866 264.966 14.5993C267.934 14.6356 270.91 14.7491 273.868 14.5834C277.552 14.3772 279.542 16.4619 281.033 19.3921C281.365 20.0435 281.615 20.7365 281.957 21.3501C282.012 23.9966 282.012 26.7033 282.012 29.4944Z" fill="#DA291C"/>
<path d="M0 22.1644C2.31529 22.0796 4.63058 22.0796 7.02063 22.0796C7.02063 31.4823 7.02063 40.9389 7.02063 50.4656C16.8821 50.4656 26.6697 50.4656 36.5093 50.4656C36.5093 52.8402 36.5093 55.1454 36.5093 57.5496C24.3985 57.5496 12.284 57.5496 0.084788 57.5523C0 45.7865 0 34.0179 0 22.1644Z" fill="#54585A"/>
<path d="M128.958 32.2202C125.693 25.0005 122.452 17.8443 119.123 10.4925C118.408 12.0432 117.769 13.4111 117.146 14.7857C114.156 21.3741 111.163 27.9609 108.198 34.5602C107.951 35.1081 107.673 35.2923 107.073 35.2836C104.501 35.2462 101.929 35.2677 99.2305 35.2677C100.025 33.5006 100.776 31.8177 101.537 30.1391C105.943 20.4152 110.359 10.6955 114.745 0.962566C115.054 0.277303 115.387 -0.0253853 116.187 0.00166011C118.22 0.0704997 120.259 0.0484509 122.294 0.00913038C122.865 -0.00189936 123.134 0.193265 123.361 0.697821C126.366 7.37823 129.386 14.0518 132.412 20.7228C134.549 25.4331 136.7 30.1368 138.843 34.8438C138.891 34.9474 138.93 35.0545 139.016 35.2658C136.195 35.2658 133.455 35.2773 130.715 35.2427C130.509 35.2401 130.234 34.9459 130.119 34.7216C129.71 33.9243 129.357 33.0986 128.958 32.2202Z" fill="#DA291C"/>
<path d="M229.367 11.6124C229.286 12.8433 229.184 14.0021 229.175 15.1617C229.154 17.7312 229.173 20.3012 229.189 22.871C229.209 26.2925 231.872 28.9354 235.291 28.9368C238.608 28.938 241.925 28.9361 245.242 28.9364C245.301 28.9364 245.36 28.9475 245.486 28.9601C245.486 31.0827 245.486 33.2129 245.486 35.4283C245.159 35.4283 244.839 35.4283 244.52 35.4283C239.858 35.4281 235.193 35.3198 230.536 35.4637C227.116 35.5694 225.089 33.7496 223.541 31.072C222.385 29.0712 222.124 26.8217 222.113 24.5759C222.091 19.7669 222.073 14.9534 222.25 10.149C222.442 4.95872 225.626 1.35412 230.602 0.358453C230.922 0.294459 231.253 0.256591 231.579 0.256093C236.061 0.249216 240.544 0.251045 245.026 0.250744C245.169 0.250733 245.312 0.250738 245.503 0.250738C245.503 2.51092 245.503 4.71002 245.503 6.98074C245.248 6.99333 244.988 7.01708 244.728 7.01728C241.71 7.01957 238.692 7.02196 235.674 7.01703C232.378 7.01164 230.421 8.41602 229.367 11.6124Z" fill="#DA291C"/>
<path d="M38.8642 7.3161C32.9626 7.3161 27.1509 7.3161 21.2988 7.3161C21.2988 4.99695 21.2988 2.76053 21.2988 0.460449C33.393 0.460449 45.4616 0.460449 57.5741 0.460449C57.5741 12.1856 57.5741 23.9067 57.5741 35.693C55.3022 35.693 53.0159 35.693 50.6689 35.693C50.6689 26.2534 50.6689 16.8414 50.6689 7.3161C46.7245 7.3161 42.8394 7.3161 38.8642 7.3161Z" fill="#54585A"/>
<path d="M164.412 0.393311C166.212 0.393311 167.922 0.393311 169.675 0.393311C169.675 2.6801 169.675 4.89117 169.675 7.14876C165.653 7.14876 161.682 7.14876 157.609 7.14876C157.609 16.6291 157.609 26.0638 157.609 35.5427C155.112 35.5427 152.716 35.5427 150.244 35.5427C150.244 26.1124 150.244 16.6985 150.244 7.18144C146.156 7.18144 142.142 7.18144 138.08 7.18144C138.08 4.89226 138.08 2.70568 138.08 0.393311C146.821 0.393311 155.572 0.393311 164.412 0.393311Z" fill="#DA291C"/>
<path d="M188.417 12.7486C188.377 11.2052 188.364 9.74966 188.286 8.29759C188.24 7.43502 187.722 7.08356 186.848 7.0909C183.693 7.11739 180.538 7.10184 177.383 7.10217C177.091 7.10219 176.798 7.10217 176.463 7.10217C176.463 4.89371 176.463 2.76233 176.463 0.573141C176.691 0.556775 176.921 0.526078 177.151 0.525959C181.586 0.52363 186.025 0.64249 190.454 0.479049C192.913 0.388296 195.773 3.06724 195.65 5.72802C195.486 9.26226 195.683 12.8121 195.573 16.3505C195.531 17.7192 195.234 19.1327 194.769 20.4237C194.017 22.5134 192.351 23.5868 190.151 23.8242C190.004 23.8401 189.854 23.8402 189.706 23.8545C188.514 23.9701 188.346 24.2993 188.99 25.2939C191.076 28.5137 193.167 31.7295 195.255 34.9478C195.364 35.1153 195.458 35.2919 195.64 35.6028C194.045 35.6028 192.575 35.6028 191.106 35.6028C190.659 35.6028 190.202 35.5387 189.768 35.6142C188.128 35.8999 187.194 35.1917 186.3 33.7995C183.215 28.9985 179.964 24.3047 176.776 19.57C176.714 19.4781 176.653 19.3856 176.52 19.1865C176.877 19.1684 177.126 19.145 177.376 19.1448C180.292 19.1422 183.209 19.149 186.126 19.1405C187.717 19.1359 188.41 18.4421 188.421 16.856C188.43 15.5167 188.419 14.1773 188.417 12.7486Z" fill="#DA291C"/>
<path d="M67.4023 30.4088C67.4023 20.3795 67.4023 10.4401 67.4023 0.439697C69.7226 0.439697 72.0034 0.439697 74.3464 0.439697C74.3464 9.86551 74.3464 19.26 74.3464 28.7526C80.7947 28.7526 87.1823 28.7526 93.6141 28.7526C93.6141 31.1152 93.6141 33.3803 93.6141 35.7139C84.9286 35.7139 76.2322 35.7139 67.4023 35.7139C67.4023 34.0026 67.4023 32.2506 67.4023 30.4088Z" fill="#DA291C"/>
<path d="M36.6885 37.9271C30.8965 37.9271 25.1918 37.9271 19.4258 37.9271C19.4258 31.9227 19.4258 25.9608 19.4258 19.9392C25.3828 19.9392 31.3698 19.9392 37.414 19.9392C37.4214 20.088 37.4347 20.2308 37.4347 20.3737C37.4358 25.992 37.4293 31.6104 37.4464 37.2288C37.4479 37.7467 37.3692 38.0471 36.6885 37.9271Z" fill="#54585A"/>
<path d="M206.798 35.5066C206.238 35.5066 205.767 35.5066 205.248 35.5066C205.248 23.8539 205.248 12.2782 205.248 0.646973C207.654 0.646973 210.06 0.646973 212.503 0.646973C212.503 12.2454 212.503 23.8206 212.503 35.5066C210.623 35.5066 208.755 35.5066 206.798 35.5066Z" fill="#DA291C"/>
<path d="M21.2612 40.5901C24.5164 40.5901 27.6817 40.5901 30.8912 40.5901C30.8912 42.9438 30.8912 45.2295 30.8912 47.5562C23.8684 47.5562 16.8773 47.5562 9.82812 47.5562C9.82812 40.6129 9.82812 33.6588 9.82812 26.6411C12.1177 26.6411 14.3989 26.6411 16.7378 26.6411C16.7378 31.2713 16.7378 35.892 16.7378 40.5901C18.2531 40.5901 19.7122 40.5901 21.2612 40.5901Z" fill="#54585A"/>
<path d="M34.7653 17.2142C31.9514 17.2142 29.2275 17.2142 26.4473 17.2142C26.4473 14.8691 26.4473 12.5923 26.4473 10.2627C33.4523 10.2627 40.454 10.2627 47.5103 10.2627C47.5103 17.2645 47.5103 24.268 47.5103 31.3257C45.2093 31.3257 42.9439 31.3257 40.6214 31.3257C40.6214 26.6764 40.6214 22.0164 40.6214 17.2142C38.6639 17.2142 36.7596 17.2142 34.7653 17.2142Z" fill="#54585A"/>
<path d="M68.8072 52V40.16H73.4632C74.6365 40.16 75.4899 40.432 76.0232 40.976C76.5672 41.5093 76.8392 42.272 76.8392 43.264C76.8392 43.7333 76.7699 44.1493 76.6312 44.512C76.5032 44.864 76.3165 45.1573 76.0712 45.392C75.8259 45.616 75.5325 45.7707 75.1912 45.856C75.4472 45.92 75.6925 46.0213 75.9272 46.16C76.1725 46.2987 76.3912 46.4853 76.5832 46.72C76.7859 46.9547 76.9405 47.2427 77.0472 47.584C77.1645 47.9147 77.2232 48.2987 77.2232 48.736C77.2232 49.536 77.0845 50.176 76.8072 50.656C76.5405 51.136 76.1405 51.4827 75.6072 51.696C75.0845 51.8987 74.4392 52 73.6712 52H68.8072ZM71.1752 49.872H73.6072C73.8845 49.872 74.1245 49.8187 74.3272 49.712C74.5299 49.6053 74.6845 49.44 74.7912 49.216C74.9085 48.992 74.9672 48.6933 74.9672 48.32C74.9672 48.0107 74.9085 47.7493 74.7912 47.536C74.6739 47.3227 74.5139 47.1573 74.3112 47.04C74.1085 46.9227 73.8739 46.864 73.6072 46.864H71.1752V49.872ZM71.1752 45.04H73.4792C73.8205 45.04 74.0872 44.9173 74.2792 44.672C74.4819 44.416 74.5832 44.0853 74.5832 43.68C74.5939 43.1573 74.4872 42.7947 74.2632 42.592C74.0392 42.3893 73.7672 42.288 73.4472 42.288H71.1752V45.04ZM81.9585 52.096C81.1905 52.096 80.5878 51.872 80.1505 51.424C79.7131 50.9653 79.4945 50.32 79.4945 49.488V43.408H81.8625V48.784C81.8625 49.264 81.9745 49.5893 82.1985 49.76C82.4331 49.92 82.7371 50 83.1105 50C83.4091 50 83.7131 49.9467 84.0225 49.84C84.3425 49.7227 84.6251 49.568 84.8705 49.376V43.408H87.2545V52H85.2865L84.8705 51.12C84.4865 51.376 84.0438 51.6053 83.5425 51.808C83.0411 52 82.5131 52.096 81.9585 52.096ZM90.1301 42.144C89.9061 42.144 89.7941 42.0373 89.7941 41.824V40.256C89.7941 40.032 89.9061 39.92 90.1301 39.92H91.9541C92.0501 39.92 92.1247 39.952 92.1781 40.016C92.2314 40.08 92.2581 40.16 92.2581 40.256V41.824C92.2581 42.0373 92.1567 42.144 91.9541 42.144H90.1301ZM89.8421 52V43.408H92.2101V52H89.8421ZM97.5176 52.032C96.9096 52.032 96.4029 51.936 95.9976 51.744C95.6029 51.5413 95.3096 51.2373 95.1176 50.832C94.9256 50.416 94.8296 49.8827 94.8296 49.232V39.792H97.1976V48.88C97.1976 49.2 97.2296 49.456 97.2936 49.648C97.3576 49.8293 97.4536 49.9627 97.5816 50.048C97.7202 50.1333 97.8909 50.192 98.0936 50.224L98.7496 50.32V52.032H97.5176ZM103.461 52.096C102.789 52.096 102.224 51.9573 101.765 51.68C101.307 51.392 100.96 50.9333 100.725 50.304C100.501 49.664 100.389 48.8267 100.389 47.792C100.389 46.7253 100.485 45.8613 100.677 45.2C100.88 44.5387 101.216 44.0533 101.685 43.744C102.155 43.4347 102.8 43.28 103.621 43.28C104.016 43.28 104.405 43.3227 104.789 43.408C105.173 43.4827 105.515 43.5733 105.813 43.68V39.792H108.197V52H106.197L105.813 51.184C105.632 51.3547 105.408 51.5093 105.141 51.648C104.885 51.7867 104.613 51.8987 104.325 51.984C104.037 52.0587 103.749 52.096 103.461 52.096ZM104.293 50.192C104.613 50.192 104.901 50.1387 105.157 50.032C105.424 49.9253 105.643 49.8187 105.813 49.712V45.392C105.6 45.3173 105.376 45.2427 105.141 45.168C104.907 45.0933 104.656 45.056 104.389 45.056C103.995 45.056 103.675 45.1253 103.429 45.264C103.195 45.4027 103.024 45.664 102.917 46.048C102.811 46.4213 102.757 46.9653 102.757 47.68C102.757 48.3413 102.805 48.8587 102.901 49.232C103.008 49.5947 103.173 49.8453 103.397 49.984C103.621 50.1227 103.92 50.192 104.293 50.192ZM111.061 42.144C110.837 42.144 110.725 42.0373 110.725 41.824V40.256C110.725 40.032 110.837 39.92 111.061 39.92H112.885C112.981 39.92 113.056 39.952 113.109 40.016C113.163 40.08 113.189 40.16 113.189 40.256V41.824C113.189 42.0373 113.088 42.144 112.885 42.144H111.061ZM110.773 52V43.408H113.141V52H110.773ZM115.761 52V43.408H117.713L118.129 44.288C118.449 44.0213 118.849 43.7867 119.329 43.584C119.819 43.3707 120.321 43.264 120.833 43.264C121.537 43.264 122.081 43.4027 122.465 43.68C122.849 43.9573 123.115 44.3307 123.265 44.8C123.425 45.2587 123.505 45.7707 123.505 46.336V52H121.137V46.64C121.137 46.3627 121.083 46.1333 120.977 45.952C120.881 45.7707 120.742 45.632 120.561 45.536C120.379 45.44 120.161 45.392 119.905 45.392C119.681 45.392 119.462 45.4187 119.249 45.472C119.046 45.5253 118.849 45.6 118.657 45.696C118.475 45.792 118.299 45.904 118.129 46.032V52H115.761ZM128.3 55.968C127.756 55.968 127.271 55.888 126.844 55.728C126.428 55.568 126.098 55.3333 125.852 55.024C125.607 54.7253 125.484 54.352 125.484 53.904V53.648C125.484 53.1893 125.612 52.7947 125.868 52.464C126.135 52.144 126.476 51.8987 126.892 51.728C127.308 51.5573 127.751 51.472 128.22 51.472L128.924 52.208C128.69 52.208 128.482 52.2453 128.3 52.32C128.119 52.3947 127.975 52.5013 127.868 52.64C127.772 52.7893 127.724 52.9707 127.724 53.184V53.36C127.724 53.6693 127.831 53.904 128.044 54.064C128.258 54.224 128.562 54.304 128.956 54.304H130.588C130.983 54.304 131.298 54.224 131.532 54.064C131.778 53.9147 131.9 53.6853 131.9 53.376V53.12C131.9 52.928 131.852 52.7627 131.756 52.624C131.671 52.496 131.538 52.3947 131.356 52.32C131.186 52.2453 130.951 52.208 130.652 52.208H128.748C127.788 52.208 127.074 52.032 126.604 51.68C126.146 51.3173 125.916 50.8747 125.916 50.352C125.916 49.9147 126.039 49.552 126.284 49.264C126.54 48.9653 126.892 48.768 127.34 48.672C126.999 48.4907 126.727 48.272 126.524 48.016C126.322 47.7493 126.178 47.4667 126.092 47.168C126.007 46.8587 125.964 46.5387 125.964 46.208C125.964 45.5787 126.092 45.056 126.348 44.64C126.615 44.224 127.01 43.9147 127.532 43.712C128.066 43.5093 128.732 43.408 129.532 43.408H134.188V44.704L132.876 44.944C132.972 45.0507 133.068 45.1787 133.164 45.328C133.26 45.4667 133.34 45.6533 133.404 45.888C133.479 46.112 133.516 46.3947 133.516 46.736C133.516 47.2267 133.41 47.6693 133.196 48.064C132.994 48.4587 132.663 48.7733 132.204 49.008C131.756 49.2427 131.159 49.36 130.412 49.36H128.892C128.604 49.36 128.37 49.4027 128.188 49.488C128.007 49.5733 127.916 49.728 127.916 49.952C127.916 50.1333 127.991 50.2613 128.14 50.336C128.3 50.4 128.476 50.432 128.668 50.432H131.036C131.698 50.432 132.258 50.5173 132.716 50.688C133.175 50.8587 133.527 51.136 133.772 51.52C134.018 51.8933 134.14 52.3893 134.14 53.008V53.248C134.14 54.0907 133.874 54.752 133.34 55.232C132.807 55.7227 131.986 55.968 130.876 55.968H128.3ZM129.228 47.584H130.14C130.471 47.584 130.722 47.536 130.892 47.44C131.074 47.3333 131.196 47.1947 131.26 47.024C131.335 46.8427 131.372 46.6347 131.372 46.4C131.372 46.1013 131.324 45.8613 131.228 45.68C131.143 45.4987 131.015 45.3707 130.844 45.296C130.674 45.2213 130.46 45.184 130.204 45.184H129.308C128.903 45.184 128.599 45.2747 128.396 45.456C128.194 45.6267 128.092 45.9307 128.092 46.368C128.092 46.784 128.188 47.0933 128.38 47.296C128.572 47.488 128.855 47.584 129.228 47.584ZM141.226 52V40.16H145.882C147.055 40.16 147.909 40.432 148.442 40.976C148.986 41.5093 149.258 42.272 149.258 43.264C149.258 43.7333 149.189 44.1493 149.05 44.512C148.922 44.864 148.735 45.1573 148.49 45.392C148.245 45.616 147.951 45.7707 147.61 45.856C147.866 45.92 148.111 46.0213 148.346 46.16C148.591 46.2987 148.81 46.4853 149.002 46.72C149.205 46.9547 149.359 47.2427 149.466 47.584C149.583 47.9147 149.642 48.2987 149.642 48.736C149.642 49.536 149.503 50.176 149.226 50.656C148.959 51.136 148.559 51.4827 148.026 51.696C147.503 51.8987 146.858 52 146.09 52H141.226ZM143.594 49.872H146.026C146.303 49.872 146.543 49.8187 146.746 49.712C146.949 49.6053 147.103 49.44 147.21 49.216C147.327 48.992 147.386 48.6933 147.386 48.32C147.386 48.0107 147.327 47.7493 147.21 47.536C147.093 47.3227 146.933 47.1573 146.73 47.04C146.527 46.9227 146.293 46.864 146.026 46.864H143.594V49.872ZM143.594 45.04H145.898C146.239 45.04 146.506 44.9173 146.698 44.672C146.901 44.416 147.002 44.0853 147.002 43.68C147.013 43.1573 146.906 42.7947 146.682 42.592C146.458 42.3893 146.186 42.288 145.866 42.288H143.594V45.04ZM155.561 52.08C154.612 52.08 153.855 51.9573 153.289 51.712C152.724 51.456 152.313 51.008 152.057 50.368C151.812 49.728 151.689 48.8427 151.689 47.712C151.689 46.5493 151.807 45.648 152.041 45.008C152.276 44.368 152.671 43.92 153.225 43.664C153.78 43.408 154.532 43.28 155.481 43.28C156.335 43.28 157.017 43.3653 157.529 43.536C158.041 43.7067 158.409 44.0053 158.633 44.432C158.868 44.8587 158.985 45.4613 158.985 46.24C158.985 46.816 158.868 47.2747 158.633 47.616C158.409 47.9467 158.089 48.1867 157.673 48.336C157.257 48.4747 156.767 48.544 156.201 48.544H154.041C154.063 48.9813 154.127 49.3333 154.233 49.6C154.351 49.856 154.559 50.0427 154.857 50.16C155.167 50.2667 155.609 50.32 156.185 50.32H158.697V51.712C158.281 51.7973 157.823 51.8827 157.321 51.968C156.831 52.0427 156.244 52.08 155.561 52.08ZM154.009 47.136H155.961C156.281 47.136 156.516 47.072 156.665 46.944C156.815 46.816 156.889 46.5867 156.889 46.256C156.889 45.9467 156.841 45.7013 156.745 45.52C156.649 45.328 156.5 45.1947 156.297 45.12C156.095 45.0347 155.823 44.992 155.481 44.992C155.119 44.992 154.831 45.056 154.617 45.184C154.404 45.3013 154.249 45.5147 154.153 45.824C154.057 46.1333 154.009 46.5707 154.009 47.136ZM164.603 52C163.942 52 163.403 51.904 162.987 51.712C162.582 51.52 162.288 51.2 162.107 50.752C161.926 50.304 161.846 49.7013 161.867 48.944L161.947 45.312H160.603V43.792L162.027 43.408L162.347 41.008H164.219V43.408H166.235V45.312H164.219V48.928C164.219 49.1627 164.24 49.3547 164.283 49.504C164.326 49.6533 164.384 49.776 164.459 49.872C164.544 49.9573 164.64 50.0213 164.747 50.064C164.854 50.1067 164.96 50.1333 165.067 50.144L166.155 50.24V52H164.603ZM171.622 52C170.96 52 170.422 51.904 170.006 51.712C169.6 51.52 169.307 51.2 169.126 50.752C168.944 50.304 168.864 49.7013 168.886 48.944L168.966 45.312H167.622V43.792L169.046 43.408L169.366 41.008H171.238V43.408H173.254V45.312H171.238V48.928C171.238 49.1627 171.259 49.3547 171.302 49.504C171.344 49.6533 171.403 49.776 171.478 49.872C171.563 49.9573 171.659 50.0213 171.766 50.064C171.872 50.1067 171.979 50.1333 172.086 50.144L173.174 50.24V52H171.622ZM178.992 52.08C178.043 52.08 177.286 51.9573 176.72 51.712C176.155 51.456 175.744 51.008 175.488 50.368C175.243 49.728 175.12 48.8427 175.12 47.712C175.12 46.5493 175.238 45.648 175.472 45.008C175.707 44.368 176.102 43.92 176.656 43.664C177.211 43.408 177.963 43.28 178.912 43.28C179.766 43.28 180.448 43.3653 180.96 43.536C181.472 43.7067 181.84 44.0053 182.064 44.432C182.299 44.8587 182.416 45.4613 182.416 46.24C182.416 46.816 182.299 47.2747 182.064 47.616C181.84 47.9467 181.52 48.1867 181.104 48.336C180.688 48.4747 180.198 48.544 179.632 48.544H177.472C177.494 48.9813 177.558 49.3333 177.664 49.6C177.782 49.856 177.99 50.0427 178.288 50.16C178.598 50.2667 179.04 50.32 179.616 50.32H182.128V51.712C181.712 51.7973 181.254 51.8827 180.752 51.968C180.262 52.0427 179.675 52.08 178.992 52.08ZM177.44 47.136H179.392C179.712 47.136 179.947 47.072 180.096 46.944C180.246 46.816 180.32 46.5867 180.32 46.256C180.32 45.9467 180.272 45.7013 180.176 45.52C180.08 45.328 179.931 45.1947 179.728 45.12C179.526 45.0347 179.254 44.992 178.912 44.992C178.55 44.992 178.262 45.056 178.048 45.184C177.835 45.3013 177.68 45.5147 177.584 45.824C177.488 46.1333 177.44 46.5707 177.44 47.136ZM184.77 52V43.408H186.594L187.138 44.72C187.448 44.3253 187.794 43.9893 188.178 43.712C188.573 43.4347 189.037 43.296 189.57 43.296C189.688 43.296 189.805 43.3013 189.922 43.312C190.05 43.3227 190.168 43.344 190.274 43.376V45.808C190.114 45.7867 189.944 45.7707 189.762 45.76C189.592 45.7387 189.426 45.728 189.266 45.728C188.957 45.728 188.674 45.7653 188.418 45.84C188.173 45.904 187.944 46.0053 187.73 46.144C187.528 46.272 187.33 46.4427 187.138 46.656V52H184.77ZM199.853 52V42.288H196.605V40.16H205.485V42.288H202.221V52H199.853ZM210.335 52.08C209.631 52.08 209.028 52.0107 208.527 51.872C208.025 51.7227 207.615 51.4773 207.295 51.136C206.985 50.7947 206.756 50.3413 206.607 49.776C206.468 49.2107 206.399 48.512 206.399 47.68C206.399 46.8053 206.468 46.0853 206.607 45.52C206.756 44.944 206.985 44.496 207.295 44.176C207.615 43.8453 208.025 43.616 208.527 43.488C209.039 43.3493 209.641 43.28 210.335 43.28C211.049 43.28 211.657 43.3493 212.159 43.488C212.66 43.6267 213.065 43.8613 213.375 44.192C213.695 44.512 213.924 44.96 214.063 45.536C214.212 46.1013 214.287 46.816 214.287 47.68C214.287 48.5333 214.217 49.248 214.079 49.824C213.94 50.3893 213.716 50.8373 213.407 51.168C213.097 51.4987 212.687 51.7333 212.175 51.872C211.673 52.0107 211.06 52.08 210.335 52.08ZM210.335 50.192C210.623 50.192 210.863 50.1653 211.055 50.112C211.257 50.0587 211.417 49.952 211.535 49.792C211.663 49.6213 211.759 49.3653 211.823 49.024C211.887 48.6827 211.919 48.2347 211.919 47.68C211.919 47.1147 211.887 46.6667 211.823 46.336C211.759 45.9947 211.663 45.744 211.535 45.584C211.417 45.4133 211.257 45.3013 211.055 45.248C210.863 45.1947 210.623 45.168 210.335 45.168C210.057 45.168 209.817 45.1947 209.615 45.248C209.423 45.3013 209.263 45.4133 209.135 45.584C209.007 45.744 208.911 45.9947 208.847 46.336C208.793 46.6667 208.767 47.1147 208.767 47.68C208.767 48.2347 208.793 48.6827 208.847 49.024C208.911 49.3653 209.007 49.6213 209.135 49.792C209.263 49.952 209.423 50.0587 209.615 50.112C209.817 50.1653 210.057 50.192 210.335 50.192ZM216.658 52V43.408H218.61L219.026 44.288C219.399 44.0107 219.804 43.7707 220.242 43.568C220.69 43.3653 221.239 43.264 221.89 43.264C222.434 43.264 222.882 43.376 223.234 43.6C223.596 43.824 223.868 44.1173 224.05 44.48C224.295 44.288 224.578 44.1013 224.898 43.92C225.228 43.7387 225.58 43.584 225.954 43.456C226.327 43.328 226.695 43.264 227.058 43.264C227.751 43.264 228.295 43.3973 228.69 43.664C229.095 43.92 229.378 44.288 229.538 44.768C229.698 45.2373 229.778 45.792 229.778 46.432V52H227.41V46.64C227.41 46.3627 227.356 46.1333 227.25 45.952C227.154 45.7707 227.015 45.632 226.834 45.536C226.652 45.44 226.434 45.392 226.178 45.392C225.858 45.392 225.532 45.4613 225.202 45.6C224.882 45.728 224.594 45.8827 224.338 46.064C224.359 46.1707 224.375 46.2773 224.386 46.384C224.396 46.48 224.402 46.5813 224.402 46.688V52H222.034V46.64C222.034 46.3627 221.98 46.1333 221.874 45.952C221.778 45.7707 221.639 45.632 221.458 45.536C221.276 45.44 221.058 45.392 220.802 45.392C220.578 45.392 220.359 45.4187 220.146 45.472C219.943 45.5253 219.746 45.6 219.554 45.696C219.372 45.792 219.196 45.904 219.026 46.032V52H216.658ZM236.028 52.08C235.324 52.08 234.722 52.0107 234.22 51.872C233.719 51.7227 233.308 51.4773 232.988 51.136C232.679 50.7947 232.45 50.3413 232.3 49.776C232.162 49.2107 232.092 48.512 232.092 47.68C232.092 46.8053 232.162 46.0853 232.3 45.52C232.45 44.944 232.679 44.496 232.988 44.176C233.308 43.8453 233.719 43.616 234.22 43.488C234.732 43.3493 235.335 43.28 236.028 43.28C236.743 43.28 237.351 43.3493 237.852 43.488C238.354 43.6267 238.759 43.8613 239.068 44.192C239.388 44.512 239.618 44.96 239.756 45.536C239.906 46.1013 239.98 46.816 239.98 47.68C239.98 48.5333 239.911 49.248 239.772 49.824C239.634 50.3893 239.41 50.8373 239.1 51.168C238.791 51.4987 238.38 51.7333 237.868 51.872C237.367 52.0107 236.754 52.08 236.028 52.08ZM236.028 50.192C236.316 50.192 236.556 50.1653 236.748 50.112C236.951 50.0587 237.111 49.952 237.228 49.792C237.356 49.6213 237.452 49.3653 237.516 49.024C237.58 48.6827 237.612 48.2347 237.612 47.68C237.612 47.1147 237.58 46.6667 237.516 46.336C237.452 45.9947 237.356 45.744 237.228 45.584C237.111 45.4133 236.951 45.3013 236.748 45.248C236.556 45.1947 236.316 45.168 236.028 45.168C235.751 45.168 235.511 45.1947 235.308 45.248C235.116 45.3013 234.956 45.4133 234.828 45.584C234.7 45.744 234.604 45.9947 234.54 46.336C234.487 46.6667 234.46 47.1147 234.46 47.68C234.46 48.2347 234.487 48.6827 234.54 49.024C234.604 49.3653 234.7 49.6213 234.828 49.792C234.956 49.952 235.116 50.0587 235.308 50.112C235.511 50.1653 235.751 50.192 236.028 50.192ZM242.351 52V43.408H244.175L244.719 44.72C245.029 44.3253 245.375 43.9893 245.759 43.712C246.154 43.4347 246.618 43.296 247.151 43.296C247.269 43.296 247.386 43.3013 247.503 43.312C247.631 43.3227 247.749 43.344 247.855 43.376V45.808C247.695 45.7867 247.525 45.7707 247.343 45.76C247.173 45.7387 247.007 45.728 246.847 45.728C246.538 45.728 246.255 45.7653 245.999 45.84C245.754 45.904 245.525 46.0053 245.311 46.144C245.109 46.272 244.911 46.4427 244.719 46.656V52H242.351ZM249.917 52V43.408H251.741L252.285 44.72C252.594 44.3253 252.941 43.9893 253.325 43.712C253.72 43.4347 254.184 43.296 254.717 43.296C254.834 43.296 254.952 43.3013 255.069 43.312C255.197 43.3227 255.314 43.344 255.421 43.376V45.808C255.261 45.7867 255.09 45.7707 254.909 45.76C254.738 45.7387 254.573 45.728 254.413 45.728C254.104 45.728 253.821 45.7653 253.565 45.84C253.32 45.904 253.09 46.0053 252.877 46.144C252.674 46.272 252.477 46.4427 252.285 46.656V52H249.917ZM261.163 52.08C260.459 52.08 259.856 52.0107 259.355 51.872C258.853 51.7227 258.443 51.4773 258.123 51.136C257.813 50.7947 257.584 50.3413 257.435 49.776C257.296 49.2107 257.227 48.512 257.227 47.68C257.227 46.8053 257.296 46.0853 257.435 45.52C257.584 44.944 257.813 44.496 258.123 44.176C258.443 43.8453 258.853 43.616 259.355 43.488C259.867 43.3493 260.469 43.28 261.163 43.28C261.877 43.28 262.485 43.3493 262.987 43.488C263.488 43.6267 263.893 43.8613 264.203 44.192C264.523 44.512 264.752 44.96 264.891 45.536C265.04 46.1013 265.115 46.816 265.115 47.68C265.115 48.5333 265.045 49.248 264.907 49.824C264.768 50.3893 264.544 50.8373 264.235 51.168C263.925 51.4987 263.515 51.7333 263.003 51.872C262.501 52.0107 261.888 52.08 261.163 52.08ZM261.163 50.192C261.451 50.192 261.691 50.1653 261.883 50.112C262.085 50.0587 262.245 49.952 262.363 49.792C262.491 49.6213 262.587 49.3653 262.651 49.024C262.715 48.6827 262.747 48.2347 262.747 47.68C262.747 47.1147 262.715 46.6667 262.651 46.336C262.587 45.9947 262.491 45.744 262.363 45.584C262.245 45.4133 262.085 45.3013 261.883 45.248C261.691 45.1947 261.451 45.168 261.163 45.168C260.885 45.168 260.645 45.1947 260.443 45.248C260.251 45.3013 260.091 45.4133 259.963 45.584C259.835 45.744 259.739 45.9947 259.675 46.336C259.621 46.6667 259.595 47.1147 259.595 47.68C259.595 48.2347 259.621 48.6827 259.675 49.024C259.739 49.3653 259.835 49.6213 259.963 49.792C260.091 49.952 260.251 50.0587 260.443 50.112C260.645 50.1653 260.885 50.192 261.163 50.192ZM268.725 52L266.453 43.408H268.901L270.261 49.808L271.957 43.408H273.909L275.605 49.808L276.837 43.408H279.285L277.045 52H274.421L272.885 46.768L271.301 52H268.725Z" fill="#54585A"/>
</svg>
