<svg width="157" height="35" viewBox="0 0 157 35" fill="none" xmlns="http://www.w3.org/2000/svg">
<path d="M156.916 16.4208C156.848 16.545 156.72 16.7184 156.72 16.7184C156.31 18.2363 155.386 19.2431 153.868 19.7009C153.726 19.7437 153.574 19.7752 153.427 19.7754C149.307 19.7793 145.188 19.7785 141.03 19.7785C141.03 18.5377 141.03 17.3112 141.03 16.0071C141.279 16.0071 141.54 16.0071 141.801 16.0071C145.038 16.007 148.274 16.0407 151.51 15.9933C153.241 15.968 153.929 14.5457 153.39 13.0285C153.075 12.1419 152.206 11.8927 151.337 11.878C149.519 11.8474 147.697 11.9328 145.883 11.8424C144.072 11.7521 142.454 11.1264 141.388 9.53391C140.842 8.71858 140.476 7.80889 140.51 6.81311C140.551 5.63348 140.561 4.43449 140.787 3.28379C141.15 1.4386 142.49 0.539192 144.252 0.212509C144.707 0.128181 145.18 0.120026 145.646 0.119105C149.065 0.112365 152.485 0.116348 155.905 0.116948C156.054 0.116973 156.202 0.116951 156.386 0.116951C156.386 1.38315 156.386 2.62767 156.386 3.94767C156.234 3.94767 156.059 3.94767 155.884 3.94768C152.631 3.94769 149.378 3.94752 146.125 3.94782C145.059 3.94792 144.335 4.6831 144.199 5.90062C144.094 6.84821 144.75 7.80655 145.69 7.98225C146.26 8.08884 146.85 8.12581 147.431 8.13291C149.082 8.15306 150.738 8.21621 152.385 8.12405C154.434 8.00931 155.542 9.16924 156.371 10.7997C156.556 11.1622 156.695 11.5477 156.885 11.8891C156.916 13.3617 156.916 14.8678 156.916 16.4208Z" fill="white"/>
<path d="M0 13.2581C1.28827 13.2109 2.57654 13.2109 3.90641 13.2109C3.90641 18.4428 3.90641 23.7046 3.90641 29.0055C9.39353 29.0055 14.8395 29.0055 20.3145 29.0055C20.3145 30.3268 20.3145 31.6094 20.3145 32.9472C13.5758 32.9472 6.83508 32.9472 0.0471777 32.9487C0 26.4019 0 19.8536 0 13.2581Z" fill="white"/>
<path d="M71.7559 17.9279C69.9392 13.9108 68.1359 9.92889 66.2833 5.83823C65.8856 6.70108 65.5303 7.46219 65.1832 8.22704C63.5198 11.893 61.8543 15.558 60.2043 19.23C60.0674 19.5348 59.9122 19.6373 59.5786 19.6325C58.1476 19.6117 56.7161 19.6236 55.2148 19.6236C55.6569 18.6404 56.075 17.704 56.4982 16.77C58.95 11.3594 61.4067 5.95117 63.8473 0.535591C64.0191 0.154297 64.2049 -0.0141249 64.6496 0.000923718C65.7813 0.0392274 66.9154 0.026959 68.0479 0.00508032C68.3655 -0.00105684 68.5153 0.107537 68.6415 0.388281C70.3136 4.10539 71.9942 7.81869 73.6778 11.5306C74.8666 14.1515 76.0634 16.7687 77.2562 19.3878C77.2825 19.4454 77.3044 19.505 77.3524 19.6226C75.7826 19.6226 74.2578 19.629 72.7332 19.6097C72.619 19.6083 72.4656 19.4446 72.4016 19.3198C72.1742 18.8762 71.9776 18.4167 71.7559 17.9279Z" fill="white"/>
<path d="M127.626 6.47028C127.581 7.15519 127.524 7.79998 127.519 8.44518C127.507 9.87493 127.518 11.3049 127.527 12.7348C127.538 14.6386 129.02 16.1092 130.922 16.1099C132.768 16.1106 134.613 16.1095 136.459 16.1097C136.492 16.1097 136.525 16.1159 136.595 16.1229C136.595 17.304 136.595 18.4892 136.595 19.7219C136.413 19.7219 136.235 19.7219 136.057 19.7219C133.463 19.7218 130.867 19.6615 128.276 19.7416C126.373 19.8004 125.246 18.7879 124.384 17.298C123.741 16.1847 123.595 14.9331 123.59 13.6834C123.577 11.0076 123.567 8.32928 123.666 5.65605C123.773 2.76805 125.544 0.762384 128.313 0.208375C128.491 0.172768 128.675 0.151697 128.857 0.15142C131.351 0.147594 133.845 0.148611 136.339 0.148444C136.418 0.148438 136.498 0.148441 136.604 0.148441C136.604 1.40605 136.604 2.62967 136.604 3.89315C136.462 3.90015 136.317 3.91337 136.173 3.91348C134.494 3.91475 132.814 3.91608 131.135 3.91334C129.301 3.91034 128.212 4.69176 127.626 6.47028Z" fill="white"/>
<path d="M21.6253 4.09001C18.3415 4.09001 15.1078 4.09001 11.8516 4.09001C11.8516 2.79959 11.8516 1.5552 11.8516 0.275391C18.581 0.275391 25.2962 0.275391 32.0358 0.275391C32.0358 6.79948 32.0358 13.3213 32.0358 19.8795C30.7717 19.8795 29.4996 19.8795 28.1936 19.8795C28.1936 14.6271 28.1936 9.39009 28.1936 4.09001C25.9989 4.09001 23.8372 4.09001 21.6253 4.09001Z" fill="white"/>
<path d="M91.4798 0.232422C92.4815 0.232422 93.4329 0.232422 94.4079 0.232422C94.4079 1.50483 94.4079 2.73512 94.4079 3.99128C92.1704 3.99128 89.9606 3.99128 87.6945 3.99128C87.6945 9.26633 87.6945 14.516 87.6945 19.7902C86.3048 19.7902 84.9717 19.7902 83.5965 19.7902C83.5965 14.543 83.5965 9.30495 83.5965 4.00947C81.3219 4.00947 79.0882 4.00947 76.8281 4.00947C76.8281 2.73573 76.8281 1.51907 76.8281 0.232422C81.6919 0.232422 86.5607 0.232422 91.4798 0.232422Z" fill="white"/>
<path d="M104.839 7.11146C104.817 6.25267 104.809 5.4428 104.766 4.63484C104.74 4.15489 104.453 3.95933 103.966 3.96341C102.211 3.97815 100.455 3.9695 98.6997 3.96968C98.5369 3.9697 98.3741 3.96968 98.1875 3.96968C98.1875 2.74085 98.1875 1.55491 98.1875 0.336805C98.3147 0.327699 98.4426 0.310619 98.5706 0.310552C101.038 0.309257 103.508 0.375393 105.972 0.284451C107.341 0.233954 108.932 1.72457 108.863 3.20508C108.772 5.1716 108.882 7.14679 108.821 9.11565C108.797 9.87722 108.632 10.6637 108.373 11.382C107.955 12.5448 107.028 13.1421 105.804 13.2741C105.722 13.283 105.639 13.283 105.556 13.291C104.893 13.3553 104.799 13.5385 105.158 14.0919C106.318 15.8835 107.482 17.6728 108.644 19.4635C108.704 19.5567 108.757 19.655 108.858 19.828C107.97 19.828 107.153 19.828 106.335 19.828C106.087 19.828 105.832 19.7923 105.591 19.8343C104.678 19.9933 104.159 19.5993 103.661 18.8246C101.945 16.1532 100.135 13.5415 98.3617 10.907C98.3273 10.8559 98.2933 10.8044 98.2196 10.6936C98.4178 10.6836 98.5566 10.6706 98.6953 10.6704C100.318 10.669 101.941 10.6728 103.564 10.6681C104.45 10.6655 104.835 10.2794 104.841 9.39688C104.846 8.65168 104.84 7.90641 104.839 7.11146Z" fill="white"/>
<path d="M37.5039 16.939C37.5039 11.3586 37.5039 5.82811 37.5039 0.263672C38.7949 0.263672 40.064 0.263672 41.3677 0.263672C41.3677 5.50837 41.3677 10.7357 41.3677 16.0175C44.9557 16.0175 48.5099 16.0175 52.0886 16.0175C52.0886 17.3321 52.0886 18.5925 52.0886 19.8909C47.2559 19.8909 42.417 19.8909 37.5039 19.8909C37.5039 18.9387 37.5039 17.9639 37.5039 16.939Z" fill="white"/>
<path d="M20.4139 21.5752C17.1911 21.5752 14.0169 21.5752 10.8086 21.5752C10.8086 18.2342 10.8086 14.917 10.8086 11.5664C14.1232 11.5664 17.4545 11.5664 20.8176 11.5664C20.8217 11.6492 20.8291 11.7287 20.8291 11.8081C20.8297 14.9343 20.8261 18.0605 20.8356 21.1867C20.8365 21.4748 20.7926 21.642 20.4139 21.5752Z" fill="white"/>
<path d="M115.066 19.7755C114.754 19.7755 114.492 19.7755 114.203 19.7755C114.203 13.2917 114.203 6.85075 114.203 0.378906C115.542 0.378906 116.88 0.378906 118.24 0.378906C118.24 6.83249 118.24 13.2732 118.24 19.7755C117.194 19.7755 116.155 19.7755 115.066 19.7755Z" fill="white"/>
<path d="M11.8303 23.3982C13.6416 23.3982 15.4028 23.3982 17.1886 23.3982C17.1886 24.7078 17.1886 25.9797 17.1886 27.2743C13.281 27.2743 9.39106 27.2743 5.46875 27.2743C5.46875 23.4109 5.46875 19.5415 5.46875 15.6367C6.74269 15.6367 8.01201 15.6367 9.3134 15.6367C9.3134 18.213 9.3134 20.7841 9.3134 23.3982C10.1566 23.3982 10.9685 23.3982 11.8303 23.3982Z" fill="white"/>
<path d="M19.3431 9.72021C17.7774 9.72021 16.2618 9.72021 14.7148 9.72021C14.7148 8.4217 14.7148 7.16102 14.7148 5.87109C18.6126 5.87109 22.5085 5.87109 26.4347 5.87109C26.4347 9.74807 26.4347 13.626 26.4347 17.534C25.1544 17.534 23.8939 17.534 22.6016 17.534C22.6016 14.9596 22.6016 12.3793 22.6016 9.72021C21.5124 9.72021 20.4528 9.72021 19.3431 9.72021Z" fill="white"/>
<path d="M37.5252 31.998V25.338H40.1442C40.8042 25.338 41.2842 25.491 41.5842 25.797C41.8902 26.097 42.0432 26.526 42.0432 27.084C42.0432 27.348 42.0042 27.582 41.9262 27.786C41.8542 27.984 41.7492 28.149 41.6112 28.281C41.4732 28.407 41.3082 28.494 41.1162 28.542C41.2602 28.578 41.3982 28.635 41.5302 28.713C41.6682 28.791 41.7912 28.896 41.8992 29.028C42.0132 29.16 42.1002 29.322 42.1602 29.514C42.2262 29.7 42.2592 29.916 42.2592 30.162C42.2592 30.612 42.1812 30.972 42.0252 31.242C41.8752 31.512 41.6502 31.707 41.3502 31.827C41.0562 31.941 40.6932 31.998 40.2612 31.998H37.5252ZM38.8572 30.801H40.2252C40.3812 30.801 40.5162 30.771 40.6302 30.711C40.7442 30.651 40.8312 30.558 40.8912 30.432C40.9572 30.306 40.9902 30.138 40.9902 29.928C40.9902 29.754 40.9572 29.607 40.8912 29.487C40.8252 29.367 40.7352 29.274 40.6212 29.208C40.5072 29.142 40.3752 29.109 40.2252 29.109H38.8572V30.801ZM38.8572 28.083H40.1532C40.3452 28.083 40.4952 28.014 40.6032 27.876C40.7172 27.732 40.7742 27.546 40.7742 27.318C40.7802 27.024 40.7202 26.82 40.5942 26.706C40.4682 26.592 40.3152 26.535 40.1352 26.535H38.8572V28.083ZM44.9228 32.052C44.4908 32.052 44.1518 31.926 43.9058 31.674C43.6598 31.416 43.5368 31.053 43.5368 30.585V27.165H44.8688V30.189C44.8688 30.459 44.9318 30.642 45.0578 30.738C45.1898 30.828 45.3608 30.873 45.5708 30.873C45.7388 30.873 45.9098 30.843 46.0838 30.783C46.2638 30.717 46.4228 30.63 46.5608 30.522V27.165H47.9018V31.998H46.7948L46.5608 31.503C46.3448 31.647 46.0958 31.776 45.8138 31.89C45.5318 31.998 45.2348 32.052 44.9228 32.052ZM49.5193 26.454C49.3933 26.454 49.3303 26.394 49.3303 26.274V25.392C49.3303 25.266 49.3933 25.203 49.5193 25.203H50.5453C50.5993 25.203 50.6413 25.221 50.6713 25.257C50.7013 25.293 50.7163 25.338 50.7163 25.392V26.274C50.7163 26.394 50.6593 26.454 50.5453 26.454H49.5193ZM49.3573 31.998V27.165H50.6893V31.998H49.3573ZM53.6748 32.016C53.3328 32.016 53.0478 31.962 52.8198 31.854C52.5978 31.74 52.4328 31.569 52.3248 31.341C52.2168 31.107 52.1628 30.807 52.1628 30.441V25.131H53.4948V30.243C53.4948 30.423 53.5128 30.567 53.5488 30.675C53.5848 30.777 53.6388 30.852 53.7108 30.9C53.7888 30.948 53.8848 30.981 53.9988 30.999L54.3678 31.053V32.016H53.6748ZM57.0181 32.052C56.6401 32.052 56.3221 31.974 56.0641 31.818C55.8061 31.656 55.6111 31.398 55.4791 31.044C55.3531 30.684 55.2901 30.213 55.2901 29.631C55.2901 29.031 55.3441 28.545 55.4521 28.173C55.5661 27.801 55.7551 27.528 56.0191 27.354C56.2831 27.18 56.6461 27.093 57.1081 27.093C57.3301 27.093 57.5491 27.117 57.7651 27.165C57.9811 27.207 58.1731 27.258 58.3411 27.318V25.131H59.6821V31.998H58.5571L58.3411 31.539C58.2391 31.635 58.1131 31.722 57.9631 31.8C57.8191 31.878 57.6661 31.941 57.5041 31.989C57.3421 32.031 57.1801 32.052 57.0181 32.052ZM57.4861 30.981C57.6661 30.981 57.8281 30.951 57.9721 30.891C58.1221 30.831 58.2451 30.771 58.3411 30.711V28.281C58.2211 28.239 58.0951 28.197 57.9631 28.155C57.8311 28.113 57.6901 28.092 57.5401 28.092C57.3181 28.092 57.1381 28.131 57.0001 28.209C56.8681 28.287 56.7721 28.434 56.7121 28.65C56.6521 28.86 56.6221 29.166 56.6221 29.568C56.6221 29.94 56.6491 30.231 56.7031 30.441C56.7631 30.645 56.8561 30.786 56.9821 30.864C57.1081 30.942 57.2761 30.981 57.4861 30.981ZM61.2932 26.454C61.1672 26.454 61.1042 26.394 61.1042 26.274V25.392C61.1042 25.266 61.1672 25.203 61.2932 25.203H62.3192C62.3732 25.203 62.4152 25.221 62.4452 25.257C62.4752 25.293 62.4902 25.338 62.4902 25.392V26.274C62.4902 26.394 62.4332 26.454 62.3192 26.454H61.2932ZM61.1312 31.998V27.165H62.4632V31.998H61.1312ZM63.9366 31.998V27.165H65.0346L65.2686 27.66C65.4486 27.51 65.6736 27.378 65.9436 27.264C66.2196 27.144 66.5016 27.084 66.7896 27.084C67.1856 27.084 67.4916 27.162 67.7076 27.318C67.9236 27.474 68.0736 27.684 68.1576 27.948C68.2476 28.206 68.2926 28.494 68.2926 28.812V31.998H66.9606V28.983C66.9606 28.827 66.9306 28.698 66.8706 28.596C66.8166 28.494 66.7386 28.416 66.6366 28.362C66.5346 28.308 66.4116 28.281 66.2676 28.281C66.1416 28.281 66.0186 28.296 65.8986 28.326C65.7846 28.356 65.6736 28.398 65.5656 28.452C65.4636 28.506 65.3646 28.569 65.2686 28.641V31.998H63.9366ZM70.9902 34.23C70.6842 34.23 70.4112 34.185 70.1712 34.095C69.9372 34.005 69.7512 33.873 69.6132 33.699C69.4752 33.531 69.4062 33.321 69.4062 33.069V32.925C69.4062 32.667 69.4782 32.445 69.6222 32.259C69.7722 32.079 69.9642 31.941 70.1982 31.845C70.4322 31.749 70.6812 31.701 70.9452 31.701L71.3412 32.115C71.2092 32.115 71.0922 32.136 70.9902 32.178C70.8882 32.22 70.8072 32.28 70.7472 32.358C70.6932 32.442 70.6662 32.544 70.6662 32.664V32.763C70.6662 32.937 70.7262 33.069 70.8462 33.159C70.9662 33.249 71.1372 33.294 71.3592 33.294H72.2772C72.4992 33.294 72.6762 33.249 72.8082 33.159C72.9462 33.075 73.0152 32.946 73.0152 32.772V32.628C73.0152 32.52 72.9882 32.427 72.9342 32.349C72.8862 32.277 72.8112 32.22 72.7092 32.178C72.6132 32.136 72.4812 32.115 72.3132 32.115H71.2422C70.7022 32.115 70.3002 32.016 70.0362 31.818C69.7782 31.614 69.6492 31.365 69.6492 31.071C69.6492 30.825 69.7182 30.621 69.8562 30.459C70.0002 30.291 70.1982 30.18 70.4502 30.126C70.2582 30.024 70.1052 29.901 69.9912 29.757C69.8772 29.607 69.7962 29.448 69.7482 29.28C69.7002 29.106 69.6762 28.926 69.6762 28.74C69.6762 28.386 69.7482 28.092 69.8922 27.858C70.0422 27.624 70.2642 27.45 70.5582 27.336C70.8582 27.222 71.2332 27.165 71.6832 27.165H74.3022V27.894L73.5642 28.029C73.6182 28.089 73.6722 28.161 73.7262 28.245C73.7802 28.323 73.8252 28.428 73.8612 28.56C73.9032 28.686 73.9242 28.845 73.9242 29.037C73.9242 29.313 73.8642 29.562 73.7442 29.784C73.6302 30.006 73.4442 30.183 73.1862 30.315C72.9342 30.447 72.5982 30.513 72.1782 30.513H71.3232C71.1612 30.513 71.0292 30.537 70.9272 30.585C70.8252 30.633 70.7742 30.72 70.7742 30.846C70.7742 30.948 70.8162 31.02 70.9002 31.062C70.9902 31.098 71.0892 31.116 71.1972 31.116H72.5292C72.9012 31.116 73.2162 31.164 73.4742 31.26C73.7322 31.356 73.9302 31.512 74.0682 31.728C74.2062 31.938 74.2752 32.217 74.2752 32.565V32.7C74.2752 33.174 74.1252 33.546 73.8252 33.816C73.5252 34.092 73.0632 34.23 72.4392 34.23H70.9902ZM71.5122 29.514H72.0252C72.2112 29.514 72.3522 29.487 72.4482 29.433C72.5502 29.373 72.6192 29.295 72.6552 29.199C72.6972 29.097 72.7182 28.98 72.7182 28.848C72.7182 28.68 72.6912 28.545 72.6372 28.443C72.5892 28.341 72.5172 28.269 72.4212 28.227C72.3252 28.185 72.2052 28.164 72.0612 28.164H71.5572C71.3292 28.164 71.1582 28.215 71.0442 28.317C70.9302 28.413 70.8732 28.584 70.8732 28.83C70.8732 29.064 70.9272 29.238 71.0352 29.352C71.1432 29.46 71.3022 29.514 71.5122 29.514ZM78.2608 31.998V25.338H80.8798C81.5398 25.338 82.0198 25.491 82.3198 25.797C82.6258 26.097 82.7788 26.526 82.7788 27.084C82.7788 27.348 82.7398 27.582 82.6618 27.786C82.5898 27.984 82.4848 28.149 82.3468 28.281C82.2088 28.407 82.0438 28.494 81.8518 28.542C81.9958 28.578 82.1338 28.635 82.2658 28.713C82.4038 28.791 82.5268 28.896 82.6348 29.028C82.7488 29.16 82.8358 29.322 82.8958 29.514C82.9618 29.7 82.9948 29.916 82.9948 30.162C82.9948 30.612 82.9168 30.972 82.7608 31.242C82.6108 31.512 82.3858 31.707 82.0858 31.827C81.7918 31.941 81.4288 31.998 80.9968 31.998H78.2608ZM79.5928 30.801H80.9608C81.1168 30.801 81.2518 30.771 81.3658 30.711C81.4798 30.651 81.5668 30.558 81.6268 30.432C81.6928 30.306 81.7258 30.138 81.7258 29.928C81.7258 29.754 81.6928 29.607 81.6268 29.487C81.5608 29.367 81.4708 29.274 81.3568 29.208C81.2428 29.142 81.1108 29.109 80.9608 29.109H79.5928V30.801ZM79.5928 28.083H80.8888C81.0808 28.083 81.2308 28.014 81.3388 27.876C81.4528 27.732 81.5098 27.546 81.5098 27.318C81.5158 27.024 81.4558 26.82 81.3298 26.706C81.2038 26.592 81.0508 26.535 80.8708 26.535H79.5928V28.083ZM86.3243 32.043C85.7903 32.043 85.3643 31.974 85.0463 31.836C84.7283 31.692 84.4973 31.44 84.3533 31.08C84.2153 30.72 84.1463 30.222 84.1463 29.586C84.1463 28.932 84.2123 28.425 84.3443 28.065C84.4763 27.705 84.6983 27.453 85.0103 27.309C85.3223 27.165 85.7453 27.093 86.2793 27.093C86.7593 27.093 87.1433 27.141 87.4313 27.237C87.7193 27.333 87.9263 27.501 88.0523 27.741C88.1843 27.981 88.2503 28.32 88.2503 28.758C88.2503 29.082 88.1843 29.34 88.0523 29.532C87.9263 29.718 87.7463 29.853 87.5123 29.937C87.2783 30.015 87.0023 30.054 86.6843 30.054H85.4693C85.4813 30.3 85.5173 30.498 85.5773 30.648C85.6433 30.792 85.7603 30.897 85.9283 30.963C86.1023 31.023 86.3513 31.053 86.6753 31.053H88.0883V31.836C87.8543 31.884 87.5963 31.932 87.3143 31.98C87.0383 32.022 86.7083 32.043 86.3243 32.043ZM85.4513 29.262H86.5493C86.7293 29.262 86.8613 29.226 86.9453 29.154C87.0293 29.082 87.0713 28.953 87.0713 28.767C87.0713 28.593 87.0443 28.455 86.9903 28.353C86.9363 28.245 86.8523 28.17 86.7383 28.128C86.6243 28.08 86.4713 28.056 86.2793 28.056C86.0753 28.056 85.9133 28.092 85.7933 28.164C85.6733 28.23 85.5863 28.35 85.5323 28.524C85.4783 28.698 85.4513 28.944 85.4513 29.262ZM91.4103 31.998C91.0383 31.998 90.7353 31.944 90.5013 31.836C90.2733 31.728 90.1083 31.548 90.0063 31.296C89.9043 31.044 89.8593 30.705 89.8713 30.279L89.9163 28.236H89.1603V27.381L89.9613 27.165L90.1413 25.815H91.1943V27.165H92.3283V28.236H91.1943V30.27C91.1943 30.402 91.2063 30.51 91.2303 30.594C91.2543 30.678 91.2873 30.747 91.3293 30.801C91.3773 30.849 91.4313 30.885 91.4913 30.909C91.5513 30.933 91.6113 30.948 91.6713 30.954L92.2833 31.008V31.998H91.4103ZM95.3584 31.998C94.9864 31.998 94.6834 31.944 94.4494 31.836C94.2214 31.728 94.0564 31.548 93.9544 31.296C93.8524 31.044 93.8074 30.705 93.8194 30.279L93.8644 28.236H93.1084V27.381L93.9094 27.165L94.0894 25.815H95.1424V27.165H96.2764V28.236H95.1424V30.27C95.1424 30.402 95.1544 30.51 95.1784 30.594C95.2024 30.678 95.2354 30.747 95.2774 30.801C95.3254 30.849 95.3794 30.885 95.4394 30.909C95.4994 30.933 95.5594 30.948 95.6194 30.954L96.2314 31.008V31.998H95.3584ZM99.5044 32.043C98.9704 32.043 98.5444 31.974 98.2264 31.836C97.9084 31.692 97.6774 31.44 97.5334 31.08C97.3954 30.72 97.3264 30.222 97.3264 29.586C97.3264 28.932 97.3924 28.425 97.5244 28.065C97.6564 27.705 97.8784 27.453 98.1904 27.309C98.5024 27.165 98.9254 27.093 99.4594 27.093C99.9394 27.093 100.323 27.141 100.611 27.237C100.899 27.333 101.106 27.501 101.232 27.741C101.364 27.981 101.43 28.32 101.43 28.758C101.43 29.082 101.364 29.34 101.232 29.532C101.106 29.718 100.926 29.853 100.692 29.937C100.458 30.015 100.182 30.054 99.8644 30.054H98.6494C98.6614 30.3 98.6974 30.498 98.7574 30.648C98.8234 30.792 98.9404 30.897 99.1084 30.963C99.2824 31.023 99.5314 31.053 99.8554 31.053H101.268V31.836C101.034 31.884 100.776 31.932 100.494 31.98C100.218 32.022 99.8884 32.043 99.5044 32.043ZM98.6314 29.262H99.7294C99.9094 29.262 100.041 29.226 100.125 29.154C100.209 29.082 100.251 28.953 100.251 28.767C100.251 28.593 100.224 28.455 100.17 28.353C100.116 28.245 100.032 28.17 99.9184 28.128C99.8044 28.08 99.6514 28.056 99.4594 28.056C99.2554 28.056 99.0934 28.092 98.9734 28.164C98.8534 28.23 98.7664 28.35 98.7124 28.524C98.6584 28.698 98.6314 28.944 98.6314 29.262ZM102.754 31.998V27.165H103.78L104.086 27.903C104.26 27.681 104.455 27.492 104.671 27.336C104.893 27.18 105.154 27.102 105.454 27.102C105.52 27.102 105.586 27.105 105.652 27.111C105.724 27.117 105.79 27.129 105.85 27.147V28.515C105.76 28.503 105.664 28.494 105.562 28.488C105.466 28.476 105.373 28.47 105.283 28.47C105.109 28.47 104.95 28.491 104.806 28.533C104.668 28.569 104.539 28.626 104.419 28.704C104.305 28.776 104.194 28.872 104.086 28.992V31.998H102.754ZM111.238 31.998V26.535H109.411V25.338H114.406V26.535H112.57V31.998H111.238ZM117.134 32.043C116.738 32.043 116.399 32.004 116.117 31.926C115.835 31.842 115.604 31.704 115.424 31.512C115.25 31.32 115.121 31.065 115.037 30.747C114.959 30.429 114.92 30.036 114.92 29.568C114.92 29.076 114.959 28.671 115.037 28.353C115.121 28.029 115.25 27.777 115.424 27.597C115.604 27.411 115.835 27.282 116.117 27.21C116.405 27.132 116.744 27.093 117.134 27.093C117.536 27.093 117.878 27.132 118.16 27.21C118.442 27.288 118.67 27.42 118.844 27.606C119.024 27.786 119.153 28.038 119.231 28.362C119.315 28.68 119.357 29.082 119.357 29.568C119.357 30.048 119.318 30.45 119.24 30.774C119.162 31.092 119.036 31.344 118.862 31.53C118.688 31.716 118.457 31.848 118.169 31.926C117.887 32.004 117.542 32.043 117.134 32.043ZM117.134 30.981C117.296 30.981 117.431 30.966 117.539 30.936C117.653 30.906 117.743 30.846 117.809 30.756C117.881 30.66 117.935 30.516 117.971 30.324C118.007 30.132 118.025 29.88 118.025 29.568C118.025 29.25 118.007 28.998 117.971 28.812C117.935 28.62 117.881 28.479 117.809 28.389C117.743 28.293 117.653 28.23 117.539 28.2C117.431 28.17 117.296 28.155 117.134 28.155C116.978 28.155 116.843 28.17 116.729 28.2C116.621 28.23 116.531 28.293 116.459 28.389C116.387 28.479 116.333 28.62 116.297 28.812C116.267 28.998 116.252 29.25 116.252 29.568C116.252 29.88 116.267 30.132 116.297 30.324C116.333 30.516 116.387 30.66 116.459 30.756C116.531 30.846 116.621 30.906 116.729 30.936C116.843 30.966 116.978 30.981 117.134 30.981ZM120.691 31.998V27.165H121.789L122.023 27.66C122.233 27.504 122.461 27.369 122.707 27.255C122.959 27.141 123.268 27.084 123.634 27.084C123.94 27.084 124.192 27.147 124.39 27.273C124.594 27.399 124.747 27.564 124.849 27.768C124.987 27.66 125.146 27.555 125.326 27.453C125.512 27.351 125.71 27.264 125.92 27.192C126.13 27.12 126.337 27.084 126.541 27.084C126.931 27.084 127.237 27.159 127.459 27.309C127.687 27.453 127.846 27.66 127.936 27.93C128.026 28.194 128.071 28.506 128.071 28.866V31.998H126.739V28.983C126.739 28.827 126.709 28.698 126.649 28.596C126.595 28.494 126.517 28.416 126.415 28.362C126.313 28.308 126.19 28.281 126.046 28.281C125.866 28.281 125.683 28.32 125.497 28.398C125.317 28.47 125.155 28.557 125.011 28.659C125.023 28.719 125.032 28.779 125.038 28.839C125.044 28.893 125.047 28.95 125.047 29.01V31.998H123.715V28.983C123.715 28.827 123.685 28.698 123.625 28.596C123.571 28.494 123.493 28.416 123.391 28.362C123.289 28.308 123.166 28.281 123.022 28.281C122.896 28.281 122.773 28.296 122.653 28.326C122.539 28.356 122.428 28.398 122.32 28.452C122.218 28.506 122.119 28.569 122.023 28.641V31.998H120.691ZM131.587 32.043C131.191 32.043 130.852 32.004 130.57 31.926C130.288 31.842 130.057 31.704 129.877 31.512C129.703 31.32 129.574 31.065 129.49 30.747C129.412 30.429 129.373 30.036 129.373 29.568C129.373 29.076 129.412 28.671 129.49 28.353C129.574 28.029 129.703 27.777 129.877 27.597C130.057 27.411 130.288 27.282 130.57 27.21C130.858 27.132 131.197 27.093 131.587 27.093C131.989 27.093 132.331 27.132 132.613 27.21C132.895 27.288 133.123 27.42 133.297 27.606C133.477 27.786 133.606 28.038 133.684 28.362C133.768 28.68 133.81 29.082 133.81 29.568C133.81 30.048 133.771 30.45 133.693 30.774C133.615 31.092 133.489 31.344 133.315 31.53C133.141 31.716 132.91 31.848 132.622 31.926C132.34 32.004 131.995 32.043 131.587 32.043ZM131.587 30.981C131.749 30.981 131.884 30.966 131.992 30.936C132.106 30.906 132.196 30.846 132.262 30.756C132.334 30.66 132.388 30.516 132.424 30.324C132.46 30.132 132.478 29.88 132.478 29.568C132.478 29.25 132.46 28.998 132.424 28.812C132.388 28.62 132.334 28.479 132.262 28.389C132.196 28.293 132.106 28.23 131.992 28.2C131.884 28.17 131.749 28.155 131.587 28.155C131.431 28.155 131.296 28.17 131.182 28.2C131.074 28.23 130.984 28.293 130.912 28.389C130.84 28.479 130.786 28.62 130.75 28.812C130.72 28.998 130.705 29.25 130.705 29.568C130.705 29.88 130.72 30.132 130.75 30.324C130.786 30.516 130.84 30.66 130.912 30.756C130.984 30.846 131.074 30.906 131.182 30.936C131.296 30.966 131.431 30.981 131.587 30.981ZM135.144 31.998V27.165H136.17L136.476 27.903C136.65 27.681 136.845 27.492 137.061 27.336C137.283 27.18 137.544 27.102 137.844 27.102C137.91 27.102 137.976 27.105 138.042 27.111C138.114 27.117 138.18 27.129 138.24 27.147V28.515C138.15 28.503 138.054 28.494 137.952 28.488C137.856 28.476 137.763 28.47 137.673 28.47C137.499 28.47 137.34 28.491 137.196 28.533C137.058 28.569 136.929 28.626 136.809 28.704C136.695 28.776 136.584 28.872 136.476 28.992V31.998H135.144ZM139.4 31.998V27.165H140.426L140.732 27.903C140.906 27.681 141.101 27.492 141.317 27.336C141.539 27.18 141.8 27.102 142.1 27.102C142.166 27.102 142.232 27.105 142.298 27.111C142.37 27.117 142.436 27.129 142.496 27.147V28.515C142.406 28.503 142.31 28.494 142.208 28.488C142.112 28.476 142.019 28.47 141.929 28.47C141.755 28.47 141.596 28.491 141.452 28.533C141.314 28.569 141.185 28.626 141.065 28.704C140.951 28.776 140.84 28.872 140.732 28.992V31.998H139.4ZM145.725 32.043C145.329 32.043 144.99 32.004 144.708 31.926C144.426 31.842 144.195 31.704 144.015 31.512C143.841 31.32 143.712 31.065 143.628 30.747C143.55 30.429 143.511 30.036 143.511 29.568C143.511 29.076 143.55 28.671 143.628 28.353C143.712 28.029 143.841 27.777 144.015 27.597C144.195 27.411 144.426 27.282 144.708 27.21C144.996 27.132 145.335 27.093 145.725 27.093C146.127 27.093 146.469 27.132 146.751 27.21C147.033 27.288 147.261 27.42 147.435 27.606C147.615 27.786 147.744 28.038 147.822 28.362C147.906 28.68 147.948 29.082 147.948 29.568C147.948 30.048 147.909 30.45 147.831 30.774C147.753 31.092 147.627 31.344 147.453 31.53C147.279 31.716 147.048 31.848 146.76 31.926C146.478 32.004 146.133 32.043 145.725 32.043ZM145.725 30.981C145.887 30.981 146.022 30.966 146.13 30.936C146.244 30.906 146.334 30.846 146.4 30.756C146.472 30.66 146.526 30.516 146.562 30.324C146.598 30.132 146.616 29.88 146.616 29.568C146.616 29.25 146.598 28.998 146.562 28.812C146.526 28.62 146.472 28.479 146.4 28.389C146.334 28.293 146.244 28.23 146.13 28.2C146.022 28.17 145.887 28.155 145.725 28.155C145.569 28.155 145.434 28.17 145.32 28.2C145.212 28.23 145.122 28.293 145.05 28.389C144.978 28.479 144.924 28.62 144.888 28.812C144.858 28.998 144.843 29.25 144.843 29.568C144.843 29.88 144.858 30.132 144.888 30.324C144.924 30.516 144.978 30.66 145.05 30.756C145.122 30.846 145.212 30.906 145.32 30.936C145.434 30.966 145.569 30.981 145.725 30.981ZM149.979 31.998L148.701 27.165H150.078L150.843 30.765L151.797 27.165H152.895L153.849 30.765L154.542 27.165H155.919L154.659 31.998H153.183L152.319 29.055L151.428 31.998H149.979Z" fill="white"/>
</svg>
